<svg version="1.1" xmlns="http://www.w3.org/2000/svg" xmlns:xlink="http://www.w3.org/1999/xlink" width="30.07138" height="30.94938" viewBox="0,0,30.07138,30.94938"><defs><radialGradient cx="240" cy="180" r="15.47469" gradientUnits="userSpaceOnUse" id="color-1"><stop offset="0" stop-color="#0400ff"/><stop offset="1" stop-color="#0400ff" stop-opacity="0"/></radialGradient></defs><g transform="translate(-224.96431,-164.52531)"><g data-paper-data="{&quot;isPaintingLayer&quot;:true}" fill-rule="nonzero" stroke-linejoin="miter" stroke-miterlimit="10" stroke-dasharray="" stroke-dashoffset="0" style="mix-blend-mode: normal"><path d="M255.03569,180c0,8.54644 -6.73171,15.47469 -15.03569,15.47469c-8.30398,0 -15.03569,-6.92825 -15.03569,-15.47469c0,-8.54644 6.73171,-15.47469 15.03569,-15.47469c8.30398,0 15.03569,6.92825 15.03569,15.47469z" fill="url(#color-1)" stroke="none" stroke-width="0" stroke-linecap="butt"/><path d="M245.0625,184.57811v2.04688h-9.625v-1.625l5.1875,-4.92187c0.58333,-0.5625 0.97396,-1.05208 1.17188,-1.46875c0.20833,-0.41667 0.3125,-0.82812 0.3125,-1.23437c0,-0.61458 -0.20833,-1.08333 -0.625,-1.40625c-0.40625,-0.32292 -1.00521,-0.48437 -1.79687,-0.48437c-1.33333,0 -2.35417,0.45313 -3.0625,1.35938l-1.6875,-1.29687c0.51042,-0.6875 1.19271,-1.21875 2.04688,-1.59375c0.86458,-0.38542 1.83333,-0.57812 2.90625,-0.57812c1.41667,0 2.54688,0.33854 3.39063,1.01563c0.85417,0.66667 1.28125,1.57813 1.28125,2.73438c0,0.70833 -0.15104,1.375 -0.45312,2c-0.30208,0.625 -0.875,1.33333 -1.71875,2.125l-3.48437,3.32813z" fill="#000000" stroke="#00f3ff" stroke-width="1" stroke-linecap="square"/><path d="M245.06252,184.57812v2.04688h-9.625v-1.625l5.1875,-4.92187c0.58333,-0.5625 0.97396,-1.05208 1.17188,-1.46875c0.20833,-0.41667 0.3125,-0.82812 0.3125,-1.23437c0,-0.61458 -0.20833,-1.08333 -0.625,-1.40625c-0.40625,-0.32292 -1.00521,-0.48437 -1.79687,-0.48437c-1.33333,0 -2.35417,0.45313 -3.0625,1.35938l-1.6875,-1.29687c0.51042,-0.6875 1.19271,-1.21875 2.04688,-1.59375c0.86458,-0.38542 1.83333,-0.57812 2.90625,-0.57812c1.41667,0 2.54688,0.33854 3.39063,1.01563c0.85417,0.66667 1.28125,1.57813 1.28125,2.73438c0,0.70833 -0.15104,1.375 -0.45312,2c-0.30208,0.625 -0.875,1.33333 -1.71875,2.125l-3.48437,3.32813z" fill="#000000" stroke="none" stroke-width="1" stroke-linecap="square"/><path d="M232.83335,190.16668v-20.33333h14.33333v20.33333z" fill="none" stroke="none" stroke-width="0" stroke-linecap="butt"/></g></g></svg>