<svg version="1.1" xmlns="http://www.w3.org/2000/svg" xmlns:xlink="http://www.w3.org/1999/xlink" width="30.07138" height="30.94938" viewBox="0,0,30.07138,30.94938"><defs><radialGradient cx="240" cy="180" r="15.47469" gradientUnits="userSpaceOnUse" id="color-1"><stop offset="0" stop-color="#0400ff"/><stop offset="1" stop-color="#0400ff" stop-opacity="0"/></radialGradient></defs><g transform="translate(-224.96431,-164.52531)"><g data-paper-data="{&quot;isPaintingLayer&quot;:true}" fill-rule="nonzero" stroke-linejoin="miter" stroke-miterlimit="10" stroke-dasharray="" stroke-dashoffset="0" style="mix-blend-mode: normal"><path d="M255.03569,180c0,8.54644 -6.73171,15.47469 -15.03569,15.47469c-8.30398,0 -15.03569,-6.92825 -15.03569,-15.47469c0,-8.54644 6.73171,-15.47469 15.03569,-15.47469c8.30398,0 15.03569,6.92825 15.03569,15.47469z" fill="url(#color-1)" stroke="none" stroke-width="0" stroke-linecap="butt"/><path d="M245.07813,173.46875v1.625l-5.07813,11.4375h-2.59375l4.90625,-11h-5.125v2.21875h-2.26562v-4.28125z" fill="#000000" stroke="#00ffff" stroke-width="1" stroke-linecap="square"/><path d="M245.07814,173.46876v1.625l-5.07813,11.4375h-2.59375l4.90625,-11h-5.125v2.21875h-2.26562v-4.28125z" fill="#000000" stroke="none" stroke-width="1" stroke-linecap="square"/><path d="M232.83335,190.16668v-20.33333h14.33333v20.33333z" fill="none" stroke="none" stroke-width="0" stroke-linecap="butt"/></g></g></svg>