<svg version="1.1" xmlns="http://www.w3.org/2000/svg" xmlns:xlink="http://www.w3.org/1999/xlink" width="30.07138" height="30.94938" viewBox="0,0,30.07138,30.94938"><defs><radialGradient cx="240" cy="180" r="15.47469" gradientUnits="userSpaceOnUse" id="color-1"><stop offset="0" stop-color="#0400ff"/><stop offset="1" stop-color="#0400ff" stop-opacity="0"/></radialGradient></defs><g transform="translate(-224.96431,-164.52531)"><g data-paper-data="{&quot;isPaintingLayer&quot;:true}" fill-rule="nonzero" stroke-linejoin="miter" stroke-miterlimit="10" stroke-dasharray="" stroke-dashoffset="0" style="mix-blend-mode: normal"><path d="M255.03569,180c0,8.54644 -6.73171,15.47469 -15.03569,15.47469c-8.30398,0 -15.03569,-6.92825 -15.03569,-15.47469c0,-8.54644 6.73171,-15.47469 15.03569,-15.47469c8.30398,0 15.03569,6.92825 15.03569,15.47469z" fill="url(#color-1)" stroke="none" stroke-width="0" stroke-linecap="butt"/><path d="M243.21093,179.67186c0.67708,0.30208 1.19792,0.71875 1.5625,1.25c0.375,0.53125 0.5625,1.15104 0.5625,1.85938c0,0.79167 -0.22396,1.48958 -0.67187,2.09375c-0.4375,0.59375 -1.0625,1.05208 -1.875,1.375c-0.80208,0.3125 -1.73958,0.46875 -2.8125,0.46875c-1.07292,0 -2.01042,-0.15625 -2.8125,-0.46875c-0.80208,-0.32292 -1.42187,-0.78125 -1.85937,-1.375c-0.42708,-0.60417 -0.64062,-1.30208 -0.64062,-2.09375c0,-0.70833 0.17708,-1.32812 0.53125,-1.85937c0.36458,-0.53125 0.88021,-0.94792 1.54688,-1.25c-0.52083,-0.29167 -0.92187,-0.66667 -1.20312,-1.125c-0.27083,-0.46875 -0.40625,-1.01042 -0.40625,-1.625c0,-0.72917 0.19792,-1.36458 0.59375,-1.90625c0.40625,-0.55208 0.97396,-0.97917 1.70313,-1.28125c0.73958,-0.30208 1.58854,-0.45312 2.54688,-0.45312c0.96875,0 1.81771,0.15104 2.54688,0.45313c0.73958,0.30208 1.3125,0.72917 1.71875,1.28125c0.41667,0.54167 0.625,1.17708 0.625,1.90625c0,0.61458 -0.14583,1.15104 -0.4375,1.60938c-0.28125,0.45833 -0.6875,0.83854 -1.21875,1.14063zM239.97655,175.18748c-0.76042,0 -1.36458,0.16146 -1.8125,0.48438c-0.4375,0.32292 -0.65625,0.77604 -0.65625,1.35938c0,0.5625 0.21875,1.01042 0.65625,1.34375c0.44792,0.32292 1.05208,0.48438 1.8125,0.48438c0.77083,0 1.38021,-0.16146 1.82813,-0.48437c0.44792,-0.33333 0.67188,-0.78125 0.67188,-1.34375c0,-0.58333 -0.22917,-1.03646 -0.6875,-1.35937c-0.44792,-0.32292 -1.05208,-0.48437 -1.8125,-0.48437zM239.97655,184.81248c0.89583,0 1.60417,-0.18229 2.125,-0.54687c0.52083,-0.375 0.78125,-0.89583 0.78125,-1.5625c0,-0.64583 -0.26042,-1.15104 -0.78125,-1.51562c-0.52083,-0.375 -1.22917,-0.5625 -2.125,-0.5625c-0.89583,0 -1.59896,0.1875 -2.10937,0.5625c-0.51042,0.36458 -0.76562,0.86979 -0.76562,1.51563c0,0.66667 0.25521,1.1875 0.76563,1.5625c0.51042,0.36458 1.21354,0.54688 2.10938,0.54688z" fill="#000000" stroke="#00ffff" stroke-width="1" stroke-linecap="square"/><path d="M243.21094,179.67189c0.67708,0.30208 1.19792,0.71875 1.5625,1.25c0.375,0.53125 0.5625,1.15104 0.5625,1.85938c0,0.79167 -0.22396,1.48958 -0.67187,2.09375c-0.4375,0.59375 -1.0625,1.05208 -1.875,1.375c-0.80208,0.3125 -1.73958,0.46875 -2.8125,0.46875c-1.07292,0 -2.01042,-0.15625 -2.8125,-0.46875c-0.80208,-0.32292 -1.42187,-0.78125 -1.85937,-1.375c-0.42708,-0.60417 -0.64062,-1.30208 -0.64062,-2.09375c0,-0.70833 0.17708,-1.32812 0.53125,-1.85937c0.36458,-0.53125 0.88021,-0.94792 1.54688,-1.25c-0.52083,-0.29167 -0.92187,-0.66667 -1.20312,-1.125c-0.27083,-0.46875 -0.40625,-1.01042 -0.40625,-1.625c0,-0.72917 0.19792,-1.36458 0.59375,-1.90625c0.40625,-0.55208 0.97396,-0.97917 1.70313,-1.28125c0.73958,-0.30208 1.58854,-0.45312 2.54688,-0.45312c0.96875,0 1.81771,0.15104 2.54688,0.45313c0.73958,0.30208 1.3125,0.72917 1.71875,1.28125c0.41667,0.54167 0.625,1.17708 0.625,1.90625c0,0.61458 -0.14583,1.15104 -0.4375,1.60938c-0.28125,0.45833 -0.6875,0.83854 -1.21875,1.14063zM239.97656,175.18751c-0.76042,0 -1.36458,0.16146 -1.8125,0.48438c-0.4375,0.32292 -0.65625,0.77604 -0.65625,1.35938c0,0.5625 0.21875,1.01042 0.65625,1.34375c0.44792,0.32292 1.05208,0.48438 1.8125,0.48438c0.77083,0 1.38021,-0.16146 1.82813,-0.48437c0.44792,-0.33333 0.67188,-0.78125 0.67188,-1.34375c0,-0.58333 -0.22917,-1.03646 -0.6875,-1.35937c-0.44792,-0.32292 -1.05208,-0.48437 -1.8125,-0.48437zM239.97656,184.81251c0.89583,0 1.60417,-0.18229 2.125,-0.54687c0.52083,-0.375 0.78125,-0.89583 0.78125,-1.5625c0,-0.64583 -0.26042,-1.15104 -0.78125,-1.51562c-0.52083,-0.375 -1.22917,-0.5625 -2.125,-0.5625c-0.89583,0 -1.59896,0.1875 -2.10937,0.5625c-0.51042,0.36458 -0.76562,0.86979 -0.76562,1.51563c0,0.66667 0.25521,1.1875 0.76563,1.5625c0.51042,0.36458 1.21354,0.54688 2.10938,0.54688z" fill="#000000" stroke="none" stroke-width="1" stroke-linecap="square"/><path d="M232.83335,190.16668v-20.33333h14.33333v20.33333z" fill="none" stroke="none" stroke-width="0" stroke-linecap="butt"/></g></g></svg>