<svg version="1.1" xmlns="http://www.w3.org/2000/svg" xmlns:xlink="http://www.w3.org/1999/xlink" width="158.47418" height="59.13108" viewBox="0,0,158.47418,59.13108"><defs><radialGradient cx="239.99999" cy="179.99999" r="28.87623" gradientUnits="userSpaceOnUse" id="color-1"><stop offset="0" stop-color="#0300ff"/><stop offset="1" stop-color="#0300ff" stop-opacity="0"/></radialGradient><radialGradient cx="250.07216" cy="179.86214" r="28.87624" gradientUnits="userSpaceOnUse" id="color-2"><stop offset="0" stop-color="#0300ff"/><stop offset="1" stop-color="#0300ff" stop-opacity="0"/></radialGradient><radialGradient cx="229.92784" cy="180.13785" r="28.87624" gradientUnits="userSpaceOnUse" id="color-3"><stop offset="0" stop-color="#0300ff"/><stop offset="1" stop-color="#0300ff" stop-opacity="0"/></radialGradient><radialGradient cx="260.14432" cy="179.72429" r="28.87622" gradientUnits="userSpaceOnUse" id="color-4"><stop offset="0" stop-color="#0300ff"/><stop offset="1" stop-color="#0300ff" stop-opacity="0"/></radialGradient><radialGradient cx="219.85568" cy="180.2757" r="28.87623" gradientUnits="userSpaceOnUse" id="color-5"><stop offset="0" stop-color="#0300ff"/><stop offset="1" stop-color="#0300ff" stop-opacity="0"/></radialGradient><radialGradient cx="270.21648" cy="179.58644" r="28.87623" gradientUnits="userSpaceOnUse" id="color-6"><stop offset="0" stop-color="#0300ff"/><stop offset="1" stop-color="#0300ff" stop-opacity="0"/></radialGradient><radialGradient cx="209.78351" cy="180.41355" r="28.87623" gradientUnits="userSpaceOnUse" id="color-7"><stop offset="0" stop-color="#0300ff"/><stop offset="1" stop-color="#0300ff" stop-opacity="0"/></radialGradient><radialGradient cx="280.28864" cy="179.44859" r="28.87623" gradientUnits="userSpaceOnUse" id="color-8"><stop offset="0" stop-color="#0300ff"/><stop offset="1" stop-color="#0300ff" stop-opacity="0"/></radialGradient><radialGradient cx="199.71136" cy="180.5514" r="28.87623" gradientUnits="userSpaceOnUse" id="color-9"><stop offset="0" stop-color="#0300ff"/><stop offset="1" stop-color="#0300ff" stop-opacity="0"/></radialGradient><radialGradient cx="290.36081" cy="179.31073" r="28.87623" gradientUnits="userSpaceOnUse" id="color-10"><stop offset="0" stop-color="#0300ff"/><stop offset="1" stop-color="#0300ff" stop-opacity="0"/></radialGradient><radialGradient cx="189.6392" cy="180.68925" r="28.87624" gradientUnits="userSpaceOnUse" id="color-11"><stop offset="0" stop-color="#0300ff"/><stop offset="1" stop-color="#0300ff" stop-opacity="0"/></radialGradient><radialGradient cx="222.5" cy="180" r="12.48427" gradientUnits="userSpaceOnUse" id="color-12"><stop offset="0" stop-color="#0300ff"/><stop offset="1" stop-color="#0300ff" stop-opacity="0"/></radialGradient><radialGradient cx="226.85457" cy="179.9404" r="12.48429" gradientUnits="userSpaceOnUse" id="color-13"><stop offset="0" stop-color="#0300ff"/><stop offset="1" stop-color="#0300ff" stop-opacity="0"/></radialGradient><radialGradient cx="218.14543" cy="180.0596" r="12.48428" gradientUnits="userSpaceOnUse" id="color-14"><stop offset="0" stop-color="#0300ff"/><stop offset="1" stop-color="#0300ff" stop-opacity="0"/></radialGradient><radialGradient cx="231.20915" cy="179.8808" r="12.48427" gradientUnits="userSpaceOnUse" id="color-15"><stop offset="0" stop-color="#0300ff"/><stop offset="1" stop-color="#0300ff" stop-opacity="0"/></radialGradient><radialGradient cx="213.79086" cy="180.1192" r="12.48427" gradientUnits="userSpaceOnUse" id="color-16"><stop offset="0" stop-color="#0300ff"/><stop offset="1" stop-color="#0300ff" stop-opacity="0"/></radialGradient><radialGradient cx="235.56372" cy="179.82121" r="12.48428" gradientUnits="userSpaceOnUse" id="color-17"><stop offset="0" stop-color="#0300ff"/><stop offset="1" stop-color="#0300ff" stop-opacity="0"/></radialGradient><radialGradient cx="209.43628" cy="180.1788" r="12.48427" gradientUnits="userSpaceOnUse" id="color-18"><stop offset="0" stop-color="#0300ff"/><stop offset="1" stop-color="#0300ff" stop-opacity="0"/></radialGradient><radialGradient cx="239.91829" cy="179.76161" r="12.48427" gradientUnits="userSpaceOnUse" id="color-19"><stop offset="0" stop-color="#0300ff"/><stop offset="1" stop-color="#0300ff" stop-opacity="0"/></radialGradient><radialGradient cx="205.08171" cy="180.23839" r="12.48428" gradientUnits="userSpaceOnUse" id="color-20"><stop offset="0" stop-color="#0300ff"/><stop offset="1" stop-color="#0300ff" stop-opacity="0"/></radialGradient><radialGradient cx="244.27287" cy="179.70201" r="12.48427" gradientUnits="userSpaceOnUse" id="color-21"><stop offset="0" stop-color="#0300ff"/><stop offset="1" stop-color="#0300ff" stop-opacity="0"/></radialGradient><radialGradient cx="200.72714" cy="180.29799" r="12.48428" gradientUnits="userSpaceOnUse" id="color-22"><stop offset="0" stop-color="#0300ff"/><stop offset="1" stop-color="#0300ff" stop-opacity="0"/></radialGradient><radialGradient cx="257" cy="180" r="12.48427" gradientUnits="userSpaceOnUse" id="color-23"><stop offset="0" stop-color="#0300ff"/><stop offset="1" stop-color="#0300ff" stop-opacity="0"/></radialGradient><radialGradient cx="261.35457" cy="179.9404" r="12.48429" gradientUnits="userSpaceOnUse" id="color-24"><stop offset="0" stop-color="#0300ff"/><stop offset="1" stop-color="#0300ff" stop-opacity="0"/></radialGradient><radialGradient cx="252.64543" cy="180.0596" r="12.48428" gradientUnits="userSpaceOnUse" id="color-25"><stop offset="0" stop-color="#0300ff"/><stop offset="1" stop-color="#0300ff" stop-opacity="0"/></radialGradient><radialGradient cx="265.70914" cy="179.8808" r="12.48427" gradientUnits="userSpaceOnUse" id="color-26"><stop offset="0" stop-color="#0300ff"/><stop offset="1" stop-color="#0300ff" stop-opacity="0"/></radialGradient><radialGradient cx="248.29086" cy="180.1192" r="12.48427" gradientUnits="userSpaceOnUse" id="color-27"><stop offset="0" stop-color="#0300ff"/><stop offset="1" stop-color="#0300ff" stop-opacity="0"/></radialGradient><radialGradient cx="270.06372" cy="179.82121" r="12.48428" gradientUnits="userSpaceOnUse" id="color-28"><stop offset="0" stop-color="#0300ff"/><stop offset="1" stop-color="#0300ff" stop-opacity="0"/></radialGradient><radialGradient cx="243.93628" cy="180.1788" r="12.48427" gradientUnits="userSpaceOnUse" id="color-29"><stop offset="0" stop-color="#0300ff"/><stop offset="1" stop-color="#0300ff" stop-opacity="0"/></radialGradient><radialGradient cx="274.41829" cy="179.76161" r="12.48427" gradientUnits="userSpaceOnUse" id="color-30"><stop offset="0" stop-color="#0300ff"/><stop offset="1" stop-color="#0300ff" stop-opacity="0"/></radialGradient><radialGradient cx="239.58171" cy="180.23839" r="12.48428" gradientUnits="userSpaceOnUse" id="color-31"><stop offset="0" stop-color="#0300ff"/><stop offset="1" stop-color="#0300ff" stop-opacity="0"/></radialGradient><radialGradient cx="278.77287" cy="179.70201" r="12.48427" gradientUnits="userSpaceOnUse" id="color-32"><stop offset="0" stop-color="#0300ff"/><stop offset="1" stop-color="#0300ff" stop-opacity="0"/></radialGradient><radialGradient cx="235.22714" cy="180.29799" r="12.48428" gradientUnits="userSpaceOnUse" id="color-33"><stop offset="0" stop-color="#0300ff"/><stop offset="1" stop-color="#0300ff" stop-opacity="0"/></radialGradient></defs><g transform="translate(-160.76291,-150.43446)"><g data-paper-data="{&quot;isPaintingLayer&quot;:true}" fill-rule="nonzero" stroke-linejoin="miter" stroke-miterlimit="10" stroke-dasharray="" stroke-dashoffset="0" style="mix-blend-mode: normal"><g stroke="none" stroke-width="0" stroke-linecap="butt"><path d="M268.87352,179.60482c0.21825,15.94641 -12.53195,29.05045 -28.47836,29.26869c-15.94641,0.21824 -29.05044,-12.53194 -29.2687,-28.47835c-0.21825,-15.94641 12.53195,-29.05044 28.47836,-29.2687c15.94641,-0.21825 29.05044,12.53194 29.26869,28.47834z" fill="url(#color-1)"/><path d="M278.94569,179.46696c0.21825,15.94641 -12.53194,29.05046 -28.47835,29.2687c-15.94641,0.21824 -29.05045,-12.53193 -29.2687,-28.47834c-0.21825,-15.94641 12.53194,-29.05045 28.47834,-29.26871c15.94641,-0.21825 29.05046,12.53194 29.26871,28.47834z" fill="url(#color-2)"/><path d="M258.80137,179.74267c0.21825,15.94641 -12.53194,29.05045 -28.47835,29.2687c-15.94641,0.21824 -29.05045,-12.53194 -29.26871,-28.47835c-0.21825,-15.94641 12.53195,-29.05045 28.47835,-29.2687c15.94641,-0.21825 29.05046,12.53194 29.2687,28.47835z" fill="url(#color-3)"/><path d="M289.01785,179.32912c0.21825,15.94641 -12.53195,29.05045 -28.47834,29.2687c-15.94641,0.21824 -29.05045,-12.53194 -29.2687,-28.47836c-0.21825,-15.94641 12.53194,-29.05045 28.47834,-29.26871c15.94641,-0.21825 29.05044,12.53195 29.26869,28.47836z" fill="url(#color-4)"/><path d="M248.72921,179.88053c0.21825,15.94641 -12.53195,29.05046 -28.47835,29.2687c-15.94641,0.21824 -29.05045,-12.53195 -29.26871,-28.47836c-0.21825,-15.94641 12.53195,-29.05044 28.47836,-29.26869c15.94641,-0.21825 29.05046,12.53194 29.26871,28.47834z" fill="url(#color-5)"/><path d="M299.09001,179.19127c0.21825,15.94641 -12.53195,29.05046 -28.47836,29.26871c-15.94641,0.21824 -29.05045,-12.53195 -29.2687,-28.47835c-0.21825,-15.94641 12.53195,-29.05045 28.47836,-29.26871c15.94641,-0.21825 29.05045,12.53195 29.2687,28.47835z" fill="url(#color-6)"/><path d="M238.65704,180.01838c0.21825,15.94641 -12.53195,29.05045 -28.47835,29.2687c-15.94641,0.21824 -29.05045,-12.53194 -29.2687,-28.47835c-0.21825,-15.94641 12.53195,-29.05045 28.47836,-29.2687c15.94641,-0.21825 29.05044,12.53195 29.2687,28.47836z" fill="url(#color-7)"/><path d="M309.16218,179.05342c0.21825,15.94641 -12.53194,29.05046 -28.47835,29.2687c-15.94641,0.21824 -29.05046,-12.53193 -29.26871,-28.47834c-0.21825,-15.94641 12.53194,-29.05044 28.47835,-29.2687c15.94641,-0.21825 29.05046,12.53195 29.2687,28.47834z" fill="url(#color-8)"/><path d="M228.58488,180.15622c0.21825,15.94641 -12.53195,29.05046 -28.47835,29.26871c-15.94641,0.21824 -29.05044,-12.53194 -29.2687,-28.47835c-0.21825,-15.94641 12.53194,-29.05044 28.47834,-29.2687c15.94641,-0.21825 29.05046,12.53194 29.2687,28.47834z" fill="url(#color-9)"/><path d="M319.23433,178.91556c0.21825,15.94641 -12.53194,29.05046 -28.47834,29.26871c-15.94641,0.21824 -29.05045,-12.53195 -29.2687,-28.47836c-0.21825,-15.94641 12.53195,-29.05044 28.47835,-29.26869c15.94641,-0.21825 29.05045,12.53195 29.26869,28.47834z" fill="url(#color-10)"/><path d="M218.51272,180.29408c0.21825,15.94641 -12.53195,29.05045 -28.47835,29.2687c-15.94641,0.21824 -29.05045,-12.53194 -29.2687,-28.47835c-0.21824,-15.94641 12.53193,-29.05045 28.47834,-29.26871c15.94641,-0.21825 29.05046,12.53195 29.2687,28.47836z" fill="url(#color-11)"/></g><path d="M183.36608,163.4249l113.17209,-0.3238l0.09578,33.47399l-113.17209,0.32379z" fill="#00ffff" stroke="none" stroke-width="0" stroke-linecap="butt"/><path d="M184.96258,164.61584l109.98593,-0.31468l0.08893,31.08298l-109.98593,0.31468z" fill="#000000" stroke="none" stroke-width="0" stroke-linecap="butt"/><g stroke="none" stroke-width="0" stroke-linecap="butt"><path d="M234.98311,179.82915c0.09436,6.89423 -5.41804,12.5596 -12.31226,12.65395c-6.89423,0.09436 -12.5596,-5.41802 -12.65395,-12.31225c-0.09436,-6.89423 5.41804,-12.5596 12.31226,-12.65396c6.89423,-0.09436 12.55959,5.41803 12.65395,12.31225z" fill="url(#color-12)"/><path d="M239.33768,179.76955c0.09436,6.89423 -5.41802,12.55961 -12.31225,12.65396c-6.89423,0.09436 -12.5596,-5.41802 -12.65396,-12.31225c-0.09436,-6.89423 5.41803,-12.5596 12.31225,-12.65396c6.89423,-0.09436 12.5596,5.41803 12.65396,12.31225z" fill="url(#color-13)"/><path d="M230.62854,179.88875c0.09436,6.89423 -5.41802,12.5596 -12.31225,12.65396c-6.89423,0.09436 -12.5596,-5.41803 -12.65396,-12.31226c-0.09436,-6.89423 5.41803,-12.5596 12.31225,-12.65395c6.89423,-0.09436 12.5596,5.41803 12.65396,12.31225z" fill="url(#color-14)"/><path d="M243.69226,179.70996c0.09436,6.89423 -5.41804,12.5596 -12.31225,12.65395c-6.89423,0.09436 -12.5596,-5.41803 -12.65395,-12.31226c-0.09436,-6.89423 5.41803,-12.5596 12.31225,-12.65396c6.89423,-0.09436 12.55959,5.41804 12.65395,12.31226z" fill="url(#color-15)"/><path d="M226.27397,179.94835c0.09436,6.89423 -5.41804,12.5596 -12.31226,12.65395c-6.89423,0.09436 -12.5596,-5.41804 -12.65396,-12.31226c-0.09436,-6.89423 5.41804,-12.55959 12.31226,-12.65395c6.89423,-0.09436 12.5596,5.41803 12.65396,12.31225z" fill="url(#color-16)"/><path d="M248.04683,179.65036c0.09436,6.89423 -5.41803,12.5596 -12.31226,12.65396c-6.89423,0.09436 -12.5596,-5.41803 -12.65395,-12.31225c-0.09436,-6.89423 5.41803,-12.5596 12.31226,-12.65396c6.89423,-0.09436 12.5596,5.41803 12.65396,12.31225z" fill="url(#color-17)"/><path d="M221.91939,180.00795c0.09436,6.89423 -5.41803,12.5596 -12.31226,12.65395c-6.89423,0.09436 -12.5596,-5.41802 -12.65396,-12.31225c-0.09436,-6.89423 5.41803,-12.5596 12.31226,-12.65395c6.89423,-0.09436 12.5596,5.41803 12.65395,12.31226z" fill="url(#color-18)"/><path d="M252.4014,179.59076c0.09436,6.89423 -5.41802,12.5596 -12.31225,12.65396c-6.89423,0.09436 -12.5596,-5.41803 -12.65396,-12.31226c-0.09436,-6.89423 5.41803,-12.5596 12.31226,-12.65395c6.89423,-0.09436 12.5596,5.41804 12.65396,12.31225z" fill="url(#color-19)"/><path d="M217.56482,180.06754c0.09436,6.89423 -5.41803,12.5596 -12.31226,12.65396c-6.89423,0.09436 -12.5596,-5.41803 -12.65396,-12.31226c-0.09436,-6.89423 5.41803,-12.5596 12.31225,-12.65396c6.89423,-0.09436 12.5596,5.41803 12.65395,12.31226z" fill="url(#color-20)"/><path d="M256.75597,179.53116c0.09436,6.89423 -5.41803,12.5596 -12.31225,12.65396c-6.89423,0.09436 -12.5596,-5.41803 -12.65395,-12.31226c-0.09436,-6.89423 5.41804,-12.5596 12.31226,-12.65395c6.89423,-0.09436 12.55959,5.41804 12.65395,12.31226z" fill="url(#color-21)"/><path d="M213.21025,180.12714c0.09436,6.89423 -5.41803,12.5596 -12.31226,12.65396c-6.89423,0.09436 -12.5596,-5.41803 -12.65395,-12.31226c-0.09436,-6.89423 5.41803,-12.5596 12.31225,-12.65396c6.89423,-0.09436 12.5596,5.41803 12.65395,12.31226z" fill="url(#color-22)"/></g><g stroke="none" stroke-width="0" stroke-linecap="butt"><path d="M269.48311,179.82915c0.09436,6.89423 -5.41804,12.5596 -12.31227,12.65395c-6.89423,0.09436 -12.5596,-5.41802 -12.65395,-12.31225c-0.09436,-6.89423 5.41804,-12.5596 12.31227,-12.65396c6.89423,-0.09436 12.55959,5.41803 12.65395,12.31225z" fill="url(#color-23)"/><path d="M273.83768,179.76955c0.09436,6.89423 -5.41802,12.55961 -12.31225,12.65396c-6.89423,0.09436 -12.5596,-5.41802 -12.65396,-12.31225c-0.09436,-6.89423 5.41803,-12.5596 12.31225,-12.65396c6.89423,-0.09436 12.5596,5.41803 12.65396,12.31225z" fill="url(#color-24)"/><path d="M265.12854,179.88875c0.09436,6.89423 -5.41802,12.5596 -12.31225,12.65396c-6.89423,0.09436 -12.5596,-5.41803 -12.65396,-12.31226c-0.09436,-6.89423 5.41803,-12.5596 12.31225,-12.65395c6.89423,-0.09436 12.5596,5.41803 12.65396,12.31225z" fill="url(#color-25)"/><path d="M278.19226,179.70996c0.09436,6.89423 -5.41803,12.5596 -12.31225,12.65395c-6.89423,0.09436 -12.5596,-5.41803 -12.65395,-12.31226c-0.09436,-6.89423 5.41803,-12.5596 12.31225,-12.65396c6.89423,-0.09436 12.55959,5.41804 12.65395,12.31226z" fill="url(#color-26)"/><path d="M260.77396,179.94835c0.09436,6.89423 -5.41803,12.5596 -12.31226,12.65395c-6.89423,0.09436 -12.5596,-5.41804 -12.65396,-12.31226c-0.09436,-6.89423 5.41804,-12.55959 12.31226,-12.65395c6.89423,-0.09436 12.5596,5.41803 12.65396,12.31225z" fill="url(#color-27)"/><path d="M282.54683,179.65036c0.09436,6.89423 -5.41803,12.5596 -12.31226,12.65396c-6.89423,0.09436 -12.5596,-5.41803 -12.65395,-12.31225c-0.09436,-6.89423 5.41803,-12.5596 12.31226,-12.65396c6.89423,-0.09436 12.5596,5.41803 12.65395,12.31225z" fill="url(#color-28)"/><path d="M256.41939,180.00795c0.09436,6.89423 -5.41804,12.5596 -12.31226,12.65395c-6.89423,0.09436 -12.5596,-5.41802 -12.65396,-12.31225c-0.09436,-6.89423 5.41803,-12.5596 12.31226,-12.65395c6.89423,-0.09436 12.5596,5.41803 12.65396,12.31226z" fill="url(#color-29)"/><path d="M286.9014,179.59076c0.09436,6.89423 -5.41803,12.5596 -12.31226,12.65396c-6.89423,0.09436 -12.5596,-5.41803 -12.65396,-12.31226c-0.09436,-6.89423 5.41803,-12.5596 12.31225,-12.65395c6.89423,-0.09436 12.55961,5.41804 12.65396,12.31225z" fill="url(#color-30)"/><path d="M252.06482,180.06754c0.09436,6.89423 -5.41803,12.5596 -12.31226,12.65396c-6.89423,0.09436 -12.5596,-5.41803 -12.65396,-12.31226c-0.09436,-6.89423 5.41803,-12.5596 12.31225,-12.65396c6.89423,-0.09436 12.5596,5.41803 12.65395,12.31226z" fill="url(#color-31)"/><path d="M291.25597,179.53116c0.09436,6.89423 -5.41803,12.5596 -12.31225,12.65396c-6.89423,0.09436 -12.5596,-5.41803 -12.65395,-12.31226c-0.09436,-6.89423 5.41803,-12.5596 12.31226,-12.65395c6.89423,-0.09436 12.5596,5.41804 12.65395,12.31226z" fill="url(#color-32)"/><path d="M247.71025,180.12714c0.09436,6.89423 -5.41803,12.5596 -12.31226,12.65396c-6.89423,0.09436 -12.5596,-5.41803 -12.65395,-12.31226c-0.09436,-6.89423 5.41803,-12.5596 12.31225,-12.65396c6.89423,-0.09436 12.5596,5.41803 12.65395,12.31226z" fill="url(#color-33)"/></g><path d="M212.70956,188.0881h-3.77613l-6.31872,-9.56618v9.56618h-3.77973v-15.51089h3.77973l6.31872,9.61293v-9.61293h3.77613zM221.06482,188.26432c-1.20836,0 -2.29565,-0.25773 -3.26185,-0.7732c-0.96381,-0.51547 -1.72263,-1.25152 -2.27647,-2.20813c-0.55143,-0.95901 -0.82715,-2.07867 -0.82715,-3.35896c0,-1.26829 0.27931,-2.38435 0.83794,-3.34816c0.56103,-0.96381 1.32704,-1.70345 2.29804,-2.21892c0.9734,-0.51787 2.06428,-0.7768 3.27264,-0.7768c1.20836,0 2.29804,0.25894 3.26905,0.7768c0.9734,0.51547 1.73942,1.25511 2.29805,2.21892c0.56103,0.96381 0.84154,2.07987 0.84154,3.34816c0,1.2659 -0.28411,2.38196 -0.85233,3.34816c-0.56822,0.96381 -1.34262,1.70346 -2.32322,2.21893c-0.97819,0.51547 -2.07028,0.7732 -3.27624,0.7732zM221.06482,184.99528c0.72166,0 1.33543,-0.26493 1.84131,-0.79478c0.50828,-0.53225 0.76242,-1.29108 0.76242,-2.27647c0,-0.98779 -0.24694,-1.74661 -0.74084,-2.27646c-0.49149,-0.52985 -1.09807,-0.79478 -1.81974,-0.79478c-0.73604,0 -1.34742,0.26133 -1.83412,0.784c-0.4867,0.52266 -0.73005,1.28508 -0.73005,2.28725c0,0.98539 0.23855,1.74421 0.71567,2.27647c0.47951,0.52985 1.08129,0.79478 1.80535,0.79478zM233.30568,177.81345c0.44115,-0.67851 0.99258,-1.21196 1.6543,-1.60036c0.66412,-0.3908 1.40136,-0.5862 2.21173,-0.5862v3.9991h-1.03933c-0.94224,0 -1.64951,0.20259 -2.12183,0.60778c-0.46992,0.40518 -0.70488,1.11605 -0.70488,2.13261v5.72173h-3.77972v-12.32815h3.77972zM254.71319,175.62689c1.53203,0 2.75118,0.46393 3.65745,1.39178c0.90627,0.92785 1.35941,2.21652 1.35941,3.86603v7.20341h-3.75455v-6.69633c0,-0.79359 -0.21098,-1.40736 -0.63295,-1.84132c-0.41957,-0.43635 -0.99738,-0.65452 -1.73343,-0.65452c-0.73604,0 -1.31385,0.21817 -1.73342,0.65452c-0.41957,0.43395 -0.62936,1.04773 -0.62936,1.84132v6.69633h-3.75814v-6.69633c0,-0.79359 -0.20979,-1.40736 -0.62936,-1.84132c-0.41957,-0.43635 -0.99738,-0.65452 -1.73342,-0.65452c-0.73604,0 -1.31385,0.21817 -1.73342,0.65452c-0.41957,0.43395 -0.62936,1.04773 -0.62936,1.84132v6.69633h-3.77973v-12.32815h3.77973v1.54641c0.38121,-0.51547 0.8811,-0.92426 1.49966,-1.22635c0.61856,-0.30209 1.31864,-0.45314 2.10024,-0.45314c0.92785,0 1.7562,0.199 2.48505,0.59699c0.72885,0.39799 1.29947,0.96501 1.71185,1.70105c0.42916,-0.67851 1.01177,-1.23114 1.74781,-1.6579c0.73604,-0.42676 1.53802,-0.64015 2.40593,-0.64015zM261.63067,181.90245c0,-1.26829 0.23856,-2.38075 0.71567,-3.33737c0.47951,-0.95662 1.13164,-1.69267 1.95639,-2.20813c0.82715,-0.51787 1.7478,-0.7768 2.76196,-0.7768c0.8703,0 1.63272,0.17742 2.28726,0.53225c0.65693,0.35244 1.16161,0.81636 1.51405,1.39177v-1.74421h3.77972v12.32815h-3.77972v-1.74421c-0.36683,0.57301 -0.8787,1.03694 -1.53562,1.39178c-0.65453,0.35244 -1.41695,0.52865 -2.28726,0.52865c-0.99977,0 -1.91324,-0.26133 -2.74039,-0.784c-0.82475,-0.52266 -1.47688,-1.2659 -1.95639,-2.22971c-0.47711,-0.96621 -0.71567,-2.08227 -0.71567,-3.34817zM270.866,181.92403c0,-0.94223 -0.26133,-1.68547 -0.784,-2.22971c-0.52267,-0.54664 -1.15921,-0.81996 -1.90964,-0.81996c-0.75283,0 -1.39057,0.26853 -1.91323,0.80558c-0.52267,0.53705 -0.784,1.27788 -0.784,2.22251c0,0.94224 0.26133,1.69027 0.784,2.2441c0.52267,0.55143 1.1604,0.82715 1.91323,0.82715c0.75043,0 1.38698,-0.27212 1.90964,-0.81636c0.52267,-0.54664 0.784,-1.29107 0.784,-2.23331zM281.16502,171.73568v16.35242h-3.77972v-16.35242z" fill="#000000" stroke="#00ffff" stroke-width="2" stroke-linecap="square"/><path d="M212.70956,188.0881h-3.77613l-6.31872,-9.56618v9.56618h-3.77973v-15.51089h3.77973l6.31872,9.61293v-9.61293h3.77613zM221.06482,188.26432c-1.20836,0 -2.29565,-0.25773 -3.26185,-0.7732c-0.96381,-0.51547 -1.72263,-1.25152 -2.27647,-2.20813c-0.55143,-0.95901 -0.82715,-2.07867 -0.82715,-3.35896c0,-1.26829 0.27931,-2.38435 0.83794,-3.34816c0.56103,-0.96381 1.32704,-1.70345 2.29804,-2.21892c0.9734,-0.51787 2.06428,-0.7768 3.27264,-0.7768c1.20836,0 2.29804,0.25894 3.26905,0.7768c0.9734,0.51547 1.73942,1.25511 2.29805,2.21892c0.56103,0.96381 0.84154,2.07987 0.84154,3.34816c0,1.2659 -0.28411,2.38196 -0.85233,3.34816c-0.56822,0.96381 -1.34262,1.70346 -2.32322,2.21893c-0.97819,0.51547 -2.07028,0.7732 -3.27624,0.7732zM221.06482,184.99528c0.72166,0 1.33543,-0.26493 1.84131,-0.79478c0.50828,-0.53225 0.76242,-1.29108 0.76242,-2.27647c0,-0.98779 -0.24694,-1.74661 -0.74084,-2.27646c-0.49149,-0.52985 -1.09807,-0.79478 -1.81974,-0.79478c-0.73604,0 -1.34742,0.26133 -1.83412,0.784c-0.4867,0.52266 -0.73005,1.28508 -0.73005,2.28725c0,0.98539 0.23855,1.74421 0.71567,2.27647c0.47951,0.52985 1.08129,0.79478 1.80535,0.79478zM233.30568,177.81345c0.44115,-0.67851 0.99258,-1.21196 1.6543,-1.60036c0.66412,-0.3908 1.40136,-0.5862 2.21173,-0.5862v3.9991h-1.03933c-0.94224,0 -1.64951,0.20259 -2.12183,0.60778c-0.46992,0.40518 -0.70488,1.11605 -0.70488,2.13261v5.72173h-3.77972v-12.32815h3.77972zM254.71319,175.62689c1.53203,0 2.75118,0.46393 3.65745,1.39178c0.90627,0.92785 1.35941,2.21652 1.35941,3.86603v7.20341h-3.75455v-6.69633c0,-0.79359 -0.21098,-1.40736 -0.63295,-1.84132c-0.41957,-0.43635 -0.99738,-0.65452 -1.73343,-0.65452c-0.73604,0 -1.31385,0.21817 -1.73342,0.65452c-0.41957,0.43395 -0.62936,1.04773 -0.62936,1.84132v6.69633h-3.75814v-6.69633c0,-0.79359 -0.20979,-1.40736 -0.62936,-1.84132c-0.41957,-0.43635 -0.99738,-0.65452 -1.73342,-0.65452c-0.73604,0 -1.31385,0.21817 -1.73342,0.65452c-0.41957,0.43395 -0.62936,1.04773 -0.62936,1.84132v6.69633h-3.77973v-12.32815h3.77973v1.54641c0.38121,-0.51547 0.8811,-0.92426 1.49966,-1.22635c0.61856,-0.30209 1.31864,-0.45314 2.10024,-0.45314c0.92785,0 1.7562,0.199 2.48505,0.59699c0.72885,0.39799 1.29947,0.96501 1.71185,1.70105c0.42916,-0.67851 1.01177,-1.23114 1.74781,-1.6579c0.73604,-0.42676 1.53802,-0.64015 2.40593,-0.64015zM261.63067,181.90245c0,-1.26829 0.23856,-2.38075 0.71567,-3.33737c0.47951,-0.95662 1.13164,-1.69267 1.95639,-2.20813c0.82715,-0.51787 1.7478,-0.7768 2.76196,-0.7768c0.8703,0 1.63272,0.17742 2.28726,0.53225c0.65693,0.35244 1.16161,0.81636 1.51405,1.39177v-1.74421h3.77972v12.32815h-3.77972v-1.74421c-0.36683,0.57301 -0.8787,1.03694 -1.53562,1.39178c-0.65453,0.35244 -1.41695,0.52865 -2.28726,0.52865c-0.99977,0 -1.91324,-0.26133 -2.74039,-0.784c-0.82475,-0.52266 -1.47688,-1.2659 -1.95639,-2.22971c-0.47711,-0.96621 -0.71567,-2.08227 -0.71567,-3.34817zM270.866,181.92403c0,-0.94223 -0.26133,-1.68547 -0.784,-2.22971c-0.52267,-0.54664 -1.15921,-0.81996 -1.90964,-0.81996c-0.75283,0 -1.39057,0.26853 -1.91323,0.80558c-0.52267,0.53705 -0.784,1.27788 -0.784,2.22251c0,0.94224 0.26133,1.69027 0.784,2.2441c0.52267,0.55143 1.1604,0.82715 1.91323,0.82715c0.75043,0 1.38698,-0.27212 1.90964,-0.81636c0.52267,-0.54664 0.784,-1.29107 0.784,-2.23331zM281.16502,171.73568v16.35242h-3.77972v-16.35242z" fill="#000000" stroke="none" stroke-width="1" stroke-linecap="square"/></g></g></svg>