<svg version="1.1" xmlns="http://www.w3.org/2000/svg" xmlns:xlink="http://www.w3.org/1999/xlink" width="158.47418" height="59.13108" viewBox="0,0,158.47418,59.13108"><defs><radialGradient cx="239.99999" cy="179.99999" r="28.87623" gradientUnits="userSpaceOnUse" id="color-1"><stop offset="0" stop-color="#0300ff"/><stop offset="1" stop-color="#0300ff" stop-opacity="0"/></radialGradient><radialGradient cx="250.07216" cy="179.86214" r="28.87624" gradientUnits="userSpaceOnUse" id="color-2"><stop offset="0" stop-color="#0300ff"/><stop offset="1" stop-color="#0300ff" stop-opacity="0"/></radialGradient><radialGradient cx="229.92784" cy="180.13785" r="28.87624" gradientUnits="userSpaceOnUse" id="color-3"><stop offset="0" stop-color="#0300ff"/><stop offset="1" stop-color="#0300ff" stop-opacity="0"/></radialGradient><radialGradient cx="260.14432" cy="179.72429" r="28.87622" gradientUnits="userSpaceOnUse" id="color-4"><stop offset="0" stop-color="#0300ff"/><stop offset="1" stop-color="#0300ff" stop-opacity="0"/></radialGradient><radialGradient cx="219.85568" cy="180.2757" r="28.87623" gradientUnits="userSpaceOnUse" id="color-5"><stop offset="0" stop-color="#0300ff"/><stop offset="1" stop-color="#0300ff" stop-opacity="0"/></radialGradient><radialGradient cx="270.21648" cy="179.58644" r="28.87623" gradientUnits="userSpaceOnUse" id="color-6"><stop offset="0" stop-color="#0300ff"/><stop offset="1" stop-color="#0300ff" stop-opacity="0"/></radialGradient><radialGradient cx="209.78351" cy="180.41355" r="28.87623" gradientUnits="userSpaceOnUse" id="color-7"><stop offset="0" stop-color="#0300ff"/><stop offset="1" stop-color="#0300ff" stop-opacity="0"/></radialGradient><radialGradient cx="280.28864" cy="179.44859" r="28.87623" gradientUnits="userSpaceOnUse" id="color-8"><stop offset="0" stop-color="#0300ff"/><stop offset="1" stop-color="#0300ff" stop-opacity="0"/></radialGradient><radialGradient cx="199.71136" cy="180.5514" r="28.87623" gradientUnits="userSpaceOnUse" id="color-9"><stop offset="0" stop-color="#0300ff"/><stop offset="1" stop-color="#0300ff" stop-opacity="0"/></radialGradient><radialGradient cx="290.36081" cy="179.31073" r="28.87623" gradientUnits="userSpaceOnUse" id="color-10"><stop offset="0" stop-color="#0300ff"/><stop offset="1" stop-color="#0300ff" stop-opacity="0"/></radialGradient><radialGradient cx="189.6392" cy="180.68925" r="28.87624" gradientUnits="userSpaceOnUse" id="color-11"><stop offset="0" stop-color="#0300ff"/><stop offset="1" stop-color="#0300ff" stop-opacity="0"/></radialGradient><radialGradient cx="222.5" cy="180" r="12.48427" gradientUnits="userSpaceOnUse" id="color-12"><stop offset="0" stop-color="#0300ff"/><stop offset="1" stop-color="#0300ff" stop-opacity="0"/></radialGradient><radialGradient cx="226.85457" cy="179.9404" r="12.48429" gradientUnits="userSpaceOnUse" id="color-13"><stop offset="0" stop-color="#0300ff"/><stop offset="1" stop-color="#0300ff" stop-opacity="0"/></radialGradient><radialGradient cx="218.14543" cy="180.0596" r="12.48428" gradientUnits="userSpaceOnUse" id="color-14"><stop offset="0" stop-color="#0300ff"/><stop offset="1" stop-color="#0300ff" stop-opacity="0"/></radialGradient><radialGradient cx="231.20915" cy="179.8808" r="12.48427" gradientUnits="userSpaceOnUse" id="color-15"><stop offset="0" stop-color="#0300ff"/><stop offset="1" stop-color="#0300ff" stop-opacity="0"/></radialGradient><radialGradient cx="213.79086" cy="180.1192" r="12.48427" gradientUnits="userSpaceOnUse" id="color-16"><stop offset="0" stop-color="#0300ff"/><stop offset="1" stop-color="#0300ff" stop-opacity="0"/></radialGradient><radialGradient cx="235.56372" cy="179.82121" r="12.48428" gradientUnits="userSpaceOnUse" id="color-17"><stop offset="0" stop-color="#0300ff"/><stop offset="1" stop-color="#0300ff" stop-opacity="0"/></radialGradient><radialGradient cx="209.43628" cy="180.1788" r="12.48427" gradientUnits="userSpaceOnUse" id="color-18"><stop offset="0" stop-color="#0300ff"/><stop offset="1" stop-color="#0300ff" stop-opacity="0"/></radialGradient><radialGradient cx="239.91829" cy="179.76161" r="12.48427" gradientUnits="userSpaceOnUse" id="color-19"><stop offset="0" stop-color="#0300ff"/><stop offset="1" stop-color="#0300ff" stop-opacity="0"/></radialGradient><radialGradient cx="205.08171" cy="180.23839" r="12.48428" gradientUnits="userSpaceOnUse" id="color-20"><stop offset="0" stop-color="#0300ff"/><stop offset="1" stop-color="#0300ff" stop-opacity="0"/></radialGradient><radialGradient cx="244.27287" cy="179.70201" r="12.48427" gradientUnits="userSpaceOnUse" id="color-21"><stop offset="0" stop-color="#0300ff"/><stop offset="1" stop-color="#0300ff" stop-opacity="0"/></radialGradient><radialGradient cx="200.72714" cy="180.29799" r="12.48428" gradientUnits="userSpaceOnUse" id="color-22"><stop offset="0" stop-color="#0300ff"/><stop offset="1" stop-color="#0300ff" stop-opacity="0"/></radialGradient><radialGradient cx="257" cy="180" r="12.48427" gradientUnits="userSpaceOnUse" id="color-23"><stop offset="0" stop-color="#0300ff"/><stop offset="1" stop-color="#0300ff" stop-opacity="0"/></radialGradient><radialGradient cx="261.35457" cy="179.9404" r="12.48429" gradientUnits="userSpaceOnUse" id="color-24"><stop offset="0" stop-color="#0300ff"/><stop offset="1" stop-color="#0300ff" stop-opacity="0"/></radialGradient><radialGradient cx="252.64543" cy="180.0596" r="12.48428" gradientUnits="userSpaceOnUse" id="color-25"><stop offset="0" stop-color="#0300ff"/><stop offset="1" stop-color="#0300ff" stop-opacity="0"/></radialGradient><radialGradient cx="265.70914" cy="179.8808" r="12.48427" gradientUnits="userSpaceOnUse" id="color-26"><stop offset="0" stop-color="#0300ff"/><stop offset="1" stop-color="#0300ff" stop-opacity="0"/></radialGradient><radialGradient cx="248.29086" cy="180.1192" r="12.48427" gradientUnits="userSpaceOnUse" id="color-27"><stop offset="0" stop-color="#0300ff"/><stop offset="1" stop-color="#0300ff" stop-opacity="0"/></radialGradient><radialGradient cx="270.06372" cy="179.82121" r="12.48428" gradientUnits="userSpaceOnUse" id="color-28"><stop offset="0" stop-color="#0300ff"/><stop offset="1" stop-color="#0300ff" stop-opacity="0"/></radialGradient><radialGradient cx="243.93628" cy="180.1788" r="12.48427" gradientUnits="userSpaceOnUse" id="color-29"><stop offset="0" stop-color="#0300ff"/><stop offset="1" stop-color="#0300ff" stop-opacity="0"/></radialGradient><radialGradient cx="274.41829" cy="179.76161" r="12.48427" gradientUnits="userSpaceOnUse" id="color-30"><stop offset="0" stop-color="#0300ff"/><stop offset="1" stop-color="#0300ff" stop-opacity="0"/></radialGradient><radialGradient cx="239.58171" cy="180.23839" r="12.48428" gradientUnits="userSpaceOnUse" id="color-31"><stop offset="0" stop-color="#0300ff"/><stop offset="1" stop-color="#0300ff" stop-opacity="0"/></radialGradient><radialGradient cx="278.77287" cy="179.70201" r="12.48427" gradientUnits="userSpaceOnUse" id="color-32"><stop offset="0" stop-color="#0300ff"/><stop offset="1" stop-color="#0300ff" stop-opacity="0"/></radialGradient><radialGradient cx="235.22714" cy="180.29799" r="12.48428" gradientUnits="userSpaceOnUse" id="color-33"><stop offset="0" stop-color="#0300ff"/><stop offset="1" stop-color="#0300ff" stop-opacity="0"/></radialGradient></defs><g transform="translate(-160.76291,-150.43446)"><g data-paper-data="{&quot;isPaintingLayer&quot;:true}" fill-rule="nonzero" stroke-linejoin="miter" stroke-miterlimit="10" stroke-dasharray="" stroke-dashoffset="0" style="mix-blend-mode: normal"><g stroke="none" stroke-width="0" stroke-linecap="butt"><path d="M268.87352,179.60482c0.21825,15.94641 -12.53195,29.05045 -28.47836,29.26869c-15.94641,0.21824 -29.05044,-12.53194 -29.2687,-28.47835c-0.21825,-15.94641 12.53195,-29.05044 28.47836,-29.2687c15.94641,-0.21825 29.05044,12.53194 29.26869,28.47834z" fill="url(#color-1)"/><path d="M278.94569,179.46696c0.21825,15.94641 -12.53194,29.05046 -28.47835,29.2687c-15.94641,0.21824 -29.05045,-12.53193 -29.2687,-28.47834c-0.21825,-15.94641 12.53194,-29.05045 28.47834,-29.26871c15.94641,-0.21825 29.05046,12.53194 29.26871,28.47834z" fill="url(#color-2)"/><path d="M258.80137,179.74267c0.21825,15.94641 -12.53194,29.05045 -28.47835,29.2687c-15.94641,0.21824 -29.05045,-12.53194 -29.26871,-28.47835c-0.21825,-15.94641 12.53195,-29.05045 28.47835,-29.2687c15.94641,-0.21825 29.05046,12.53194 29.2687,28.47835z" fill="url(#color-3)"/><path d="M289.01785,179.32912c0.21825,15.94641 -12.53195,29.05045 -28.47834,29.2687c-15.94641,0.21824 -29.05045,-12.53194 -29.2687,-28.47836c-0.21825,-15.94641 12.53194,-29.05045 28.47834,-29.26871c15.94641,-0.21825 29.05044,12.53195 29.26869,28.47836z" fill="url(#color-4)"/><path d="M248.72921,179.88053c0.21825,15.94641 -12.53195,29.05046 -28.47835,29.2687c-15.94641,0.21824 -29.05045,-12.53195 -29.26871,-28.47836c-0.21825,-15.94641 12.53195,-29.05044 28.47836,-29.26869c15.94641,-0.21825 29.05046,12.53194 29.26871,28.47834z" fill="url(#color-5)"/><path d="M299.09001,179.19127c0.21825,15.94641 -12.53195,29.05046 -28.47836,29.26871c-15.94641,0.21824 -29.05045,-12.53195 -29.2687,-28.47835c-0.21825,-15.94641 12.53195,-29.05045 28.47836,-29.26871c15.94641,-0.21825 29.05045,12.53195 29.2687,28.47835z" fill="url(#color-6)"/><path d="M238.65704,180.01838c0.21825,15.94641 -12.53195,29.05045 -28.47835,29.2687c-15.94641,0.21824 -29.05045,-12.53194 -29.2687,-28.47835c-0.21825,-15.94641 12.53195,-29.05045 28.47836,-29.2687c15.94641,-0.21825 29.05044,12.53195 29.2687,28.47836z" fill="url(#color-7)"/><path d="M309.16218,179.05342c0.21825,15.94641 -12.53194,29.05046 -28.47835,29.2687c-15.94641,0.21824 -29.05046,-12.53193 -29.26871,-28.47834c-0.21825,-15.94641 12.53194,-29.05044 28.47835,-29.2687c15.94641,-0.21825 29.05046,12.53195 29.2687,28.47834z" fill="url(#color-8)"/><path d="M228.58488,180.15622c0.21825,15.94641 -12.53195,29.05046 -28.47835,29.26871c-15.94641,0.21824 -29.05044,-12.53194 -29.2687,-28.47835c-0.21825,-15.94641 12.53194,-29.05044 28.47834,-29.2687c15.94641,-0.21825 29.05046,12.53194 29.2687,28.47834z" fill="url(#color-9)"/><path d="M319.23433,178.91556c0.21825,15.94641 -12.53194,29.05046 -28.47834,29.26871c-15.94641,0.21824 -29.05045,-12.53195 -29.2687,-28.47836c-0.21825,-15.94641 12.53195,-29.05044 28.47835,-29.26869c15.94641,-0.21825 29.05045,12.53195 29.26869,28.47834z" fill="url(#color-10)"/><path d="M218.51272,180.29408c0.21825,15.94641 -12.53195,29.05045 -28.47835,29.2687c-15.94641,0.21824 -29.05045,-12.53194 -29.2687,-28.47835c-0.21824,-15.94641 12.53193,-29.05045 28.47834,-29.26871c15.94641,-0.21825 29.05046,12.53195 29.2687,28.47836z" fill="url(#color-11)"/></g><path d="M183.36608,163.4249l113.17209,-0.3238l0.09578,33.47399l-113.17209,0.32379z" fill="#00ffff" stroke="none" stroke-width="0" stroke-linecap="butt"/><path d="M184.96258,164.61584l109.98593,-0.31468l0.08893,31.08298l-109.98593,0.31468z" fill="#000000" stroke="none" stroke-width="0" stroke-linecap="butt"/><g stroke="none" stroke-width="0" stroke-linecap="butt"><path d="M234.98311,179.82915c0.09436,6.89423 -5.41804,12.5596 -12.31226,12.65395c-6.89423,0.09436 -12.5596,-5.41802 -12.65395,-12.31225c-0.09436,-6.89423 5.41804,-12.5596 12.31226,-12.65396c6.89423,-0.09436 12.55959,5.41803 12.65395,12.31225z" fill="url(#color-12)"/><path d="M239.33768,179.76955c0.09436,6.89423 -5.41802,12.55961 -12.31225,12.65396c-6.89423,0.09436 -12.5596,-5.41802 -12.65396,-12.31225c-0.09436,-6.89423 5.41803,-12.5596 12.31225,-12.65396c6.89423,-0.09436 12.5596,5.41803 12.65396,12.31225z" fill="url(#color-13)"/><path d="M230.62854,179.88875c0.09436,6.89423 -5.41802,12.5596 -12.31225,12.65396c-6.89423,0.09436 -12.5596,-5.41803 -12.65396,-12.31226c-0.09436,-6.89423 5.41803,-12.5596 12.31225,-12.65395c6.89423,-0.09436 12.5596,5.41803 12.65396,12.31225z" fill="url(#color-14)"/><path d="M243.69226,179.70996c0.09436,6.89423 -5.41804,12.5596 -12.31225,12.65395c-6.89423,0.09436 -12.5596,-5.41803 -12.65395,-12.31226c-0.09436,-6.89423 5.41803,-12.5596 12.31225,-12.65396c6.89423,-0.09436 12.55959,5.41804 12.65395,12.31226z" fill="url(#color-15)"/><path d="M226.27397,179.94835c0.09436,6.89423 -5.41804,12.5596 -12.31226,12.65395c-6.89423,0.09436 -12.5596,-5.41804 -12.65396,-12.31226c-0.09436,-6.89423 5.41804,-12.55959 12.31226,-12.65395c6.89423,-0.09436 12.5596,5.41803 12.65396,12.31225z" fill="url(#color-16)"/><path d="M248.04683,179.65036c0.09436,6.89423 -5.41803,12.5596 -12.31226,12.65396c-6.89423,0.09436 -12.5596,-5.41803 -12.65395,-12.31225c-0.09436,-6.89423 5.41803,-12.5596 12.31226,-12.65396c6.89423,-0.09436 12.5596,5.41803 12.65396,12.31225z" fill="url(#color-17)"/><path d="M221.91939,180.00795c0.09436,6.89423 -5.41803,12.5596 -12.31226,12.65395c-6.89423,0.09436 -12.5596,-5.41802 -12.65396,-12.31225c-0.09436,-6.89423 5.41803,-12.5596 12.31226,-12.65395c6.89423,-0.09436 12.5596,5.41803 12.65395,12.31226z" fill="url(#color-18)"/><path d="M252.4014,179.59076c0.09436,6.89423 -5.41802,12.5596 -12.31225,12.65396c-6.89423,0.09436 -12.5596,-5.41803 -12.65396,-12.31226c-0.09436,-6.89423 5.41803,-12.5596 12.31226,-12.65395c6.89423,-0.09436 12.5596,5.41804 12.65396,12.31225z" fill="url(#color-19)"/><path d="M217.56482,180.06754c0.09436,6.89423 -5.41803,12.5596 -12.31226,12.65396c-6.89423,0.09436 -12.5596,-5.41803 -12.65396,-12.31226c-0.09436,-6.89423 5.41803,-12.5596 12.31225,-12.65396c6.89423,-0.09436 12.5596,5.41803 12.65395,12.31226z" fill="url(#color-20)"/><path d="M256.75597,179.53116c0.09436,6.89423 -5.41803,12.5596 -12.31225,12.65396c-6.89423,0.09436 -12.5596,-5.41803 -12.65395,-12.31226c-0.09436,-6.89423 5.41804,-12.5596 12.31226,-12.65395c6.89423,-0.09436 12.55959,5.41804 12.65395,12.31226z" fill="url(#color-21)"/><path d="M213.21025,180.12714c0.09436,6.89423 -5.41803,12.5596 -12.31226,12.65396c-6.89423,0.09436 -12.5596,-5.41803 -12.65395,-12.31226c-0.09436,-6.89423 5.41803,-12.5596 12.31225,-12.65396c6.89423,-0.09436 12.5596,5.41803 12.65395,12.31226z" fill="url(#color-22)"/></g><g stroke="none" stroke-width="0" stroke-linecap="butt"><path d="M269.48311,179.82915c0.09436,6.89423 -5.41804,12.5596 -12.31227,12.65395c-6.89423,0.09436 -12.5596,-5.41802 -12.65395,-12.31225c-0.09436,-6.89423 5.41804,-12.5596 12.31227,-12.65396c6.89423,-0.09436 12.55959,5.41803 12.65395,12.31225z" fill="url(#color-23)"/><path d="M273.83768,179.76955c0.09436,6.89423 -5.41802,12.55961 -12.31225,12.65396c-6.89423,0.09436 -12.5596,-5.41802 -12.65396,-12.31225c-0.09436,-6.89423 5.41803,-12.5596 12.31225,-12.65396c6.89423,-0.09436 12.5596,5.41803 12.65396,12.31225z" fill="url(#color-24)"/><path d="M265.12854,179.88875c0.09436,6.89423 -5.41802,12.5596 -12.31225,12.65396c-6.89423,0.09436 -12.5596,-5.41803 -12.65396,-12.31226c-0.09436,-6.89423 5.41803,-12.5596 12.31225,-12.65395c6.89423,-0.09436 12.5596,5.41803 12.65396,12.31225z" fill="url(#color-25)"/><path d="M278.19226,179.70996c0.09436,6.89423 -5.41803,12.5596 -12.31225,12.65395c-6.89423,0.09436 -12.5596,-5.41803 -12.65395,-12.31226c-0.09436,-6.89423 5.41803,-12.5596 12.31225,-12.65396c6.89423,-0.09436 12.55959,5.41804 12.65395,12.31226z" fill="url(#color-26)"/><path d="M260.77396,179.94835c0.09436,6.89423 -5.41803,12.5596 -12.31226,12.65395c-6.89423,0.09436 -12.5596,-5.41804 -12.65396,-12.31226c-0.09436,-6.89423 5.41804,-12.55959 12.31226,-12.65395c6.89423,-0.09436 12.5596,5.41803 12.65396,12.31225z" fill="url(#color-27)"/><path d="M282.54683,179.65036c0.09436,6.89423 -5.41803,12.5596 -12.31226,12.65396c-6.89423,0.09436 -12.5596,-5.41803 -12.65395,-12.31225c-0.09436,-6.89423 5.41803,-12.5596 12.31226,-12.65396c6.89423,-0.09436 12.5596,5.41803 12.65395,12.31225z" fill="url(#color-28)"/><path d="M256.41939,180.00795c0.09436,6.89423 -5.41804,12.5596 -12.31226,12.65395c-6.89423,0.09436 -12.5596,-5.41802 -12.65396,-12.31225c-0.09436,-6.89423 5.41803,-12.5596 12.31226,-12.65395c6.89423,-0.09436 12.5596,5.41803 12.65396,12.31226z" fill="url(#color-29)"/><path d="M286.9014,179.59076c0.09436,6.89423 -5.41803,12.5596 -12.31226,12.65396c-6.89423,0.09436 -12.5596,-5.41803 -12.65396,-12.31226c-0.09436,-6.89423 5.41803,-12.5596 12.31225,-12.65395c6.89423,-0.09436 12.55961,5.41804 12.65396,12.31225z" fill="url(#color-30)"/><path d="M252.06482,180.06754c0.09436,6.89423 -5.41803,12.5596 -12.31226,12.65396c-6.89423,0.09436 -12.5596,-5.41803 -12.65396,-12.31226c-0.09436,-6.89423 5.41803,-12.5596 12.31225,-12.65396c6.89423,-0.09436 12.5596,5.41803 12.65395,12.31226z" fill="url(#color-31)"/><path d="M291.25597,179.53116c0.09436,6.89423 -5.41803,12.5596 -12.31225,12.65396c-6.89423,0.09436 -12.5596,-5.41803 -12.65395,-12.31226c-0.09436,-6.89423 5.41803,-12.5596 12.31226,-12.65395c6.89423,-0.09436 12.5596,5.41804 12.65395,12.31226z" fill="url(#color-32)"/><path d="M247.71025,180.12714c0.09436,6.89423 -5.41803,12.5596 -12.31226,12.65396c-6.89423,0.09436 -12.5596,-5.41803 -12.65395,-12.31226c-0.09436,-6.89423 5.41803,-12.5596 12.31225,-12.65396c6.89423,-0.09436 12.5596,5.41803 12.65395,12.31226z" fill="url(#color-33)"/></g><path d="M199.75063,177.1306v2.41751h3.90073v2.2484h-3.90073v2.62266h4.41084v2.33434h-7.32461v-11.95725h7.32461v2.33434zM211.67157,186.75351l-1.82145,-2.6393l-1.53312,2.6393h-3.15219l3.13555,-4.85443l-3.21873,-4.64927h3.26863l1.82422,2.62266l1.53313,-2.62266h3.14942l-3.18546,4.78512l3.2714,4.71858zM217.53145,176.26007c-0.51012,0 -0.9269,-0.1497 -1.25034,-0.44912c-0.32344,-0.30127 -0.48516,-0.67369 -0.48516,-1.11727c0,-0.45467 0.16172,-0.83172 0.48516,-1.13113c0.32344,-0.30127 0.74022,-0.4519 1.25034,-0.4519c0.50088,0 0.91304,0.15063 1.23648,0.4519c0.32344,0.29942 0.48516,0.67646 0.48516,1.13113c0,0.44358 -0.16172,0.816 -0.48516,1.11727c-0.32344,0.29942 -0.7356,0.44912 -1.23648,0.44912zM218.9814,177.24981v9.5037h-2.91377v-9.5037zM226.39051,184.28332v2.47018h-1.48322c-1.05535,0 -1.87875,-0.25784 -2.47018,-0.77349c-0.58959,-0.51751 -0.88439,-1.36123 -0.88439,-2.53117v-3.78152h-1.15885v-2.41751h1.15885v-2.31771h2.91099v2.31771h1.91017v2.41751h-1.91017v3.81479c0,0.28463 0.06839,0.48979 0.20516,0.61547c0.13677,0.12383 0.3641,0.18575 0.682,0.18575h1.03964zM239.55649,178.57777c-0.21624,-0.39738 -0.52582,-0.70048 -0.92874,-0.90933c-0.40292,-0.2107 -0.877,-0.31605 -1.42223,-0.31605c-0.9426,0 -1.69761,0.30958 -2.26502,0.92874c-0.56741,0.61731 -0.85112,1.44256 -0.85112,2.47573c0,1.10155 0.29757,1.96192 0.89271,2.58108c0.59698,0.61917 1.4176,0.92874 2.46186,0.92874c0.71527,0 1.31965,-0.18113 1.81313,-0.54339c0.49533,-0.3641 0.85666,-0.88716 1.084,-1.56916h-3.69835v-2.14582h6.33765v2.70861c-0.21624,0.72636 -0.58313,1.40189 -1.10064,2.0266c-0.51566,0.62471 -1.17087,1.13021 -1.96561,1.51649c-0.79475,0.38628 -1.69207,0.57943 -2.69198,0.57943c-1.18103,0 -2.23453,-0.25783 -3.16051,-0.77349c-0.92413,-0.51751 -1.64494,-1.23648 -2.16245,-2.15691c-0.51566,-0.92043 -0.77349,-1.97116 -0.77349,-3.15219c0,-1.18103 0.25784,-2.23361 0.77349,-3.15774c0.51751,-0.92597 1.23556,-1.64679 2.15413,-2.16245c0.92043,-0.51751 1.97116,-0.77626 3.15219,-0.77626c1.43054,0 2.63653,0.34654 3.61795,1.03964c0.98327,0.69125 1.63385,1.65048 1.95175,2.87772zM244.01926,181.98502c0,-0.97772 0.1839,-1.83532 0.5517,-2.57277c0.36965,-0.73745 0.87238,-1.30486 1.50817,-1.70224c0.63764,-0.39922 1.34737,-0.59883 2.12918,-0.59883c0.67092,0 1.25866,0.13678 1.76323,0.41031c0.50642,0.27169 0.89548,0.62932 1.16717,1.0729v-1.3446h2.91376v9.5037h-2.91376v-1.34461c-0.28278,0.44173 -0.67739,0.79937 -1.18381,1.07291c-0.50457,0.27169 -1.09231,0.40754 -1.76323,0.40754c-0.77072,0 -1.4749,-0.20146 -2.11255,-0.60438c-0.6358,-0.40292 -1.13852,-0.97587 -1.50817,-1.71887c-0.3678,-0.74484 -0.5517,-1.60521 -0.5517,-2.58108zM251.13871,182.00166c0,-0.72636 -0.20146,-1.29932 -0.60438,-1.71887c-0.40292,-0.4214 -0.89363,-0.6321 -1.47213,-0.6321c-0.58035,0 -1.07199,0.20701 -1.47491,0.62101c-0.40292,0.41401 -0.60438,0.98512 -0.60438,1.71332c0,0.72636 0.20146,1.30302 0.60438,1.72996c0.40292,0.4251 0.89455,0.63764 1.47491,0.63764c0.5785,0 1.06921,-0.20977 1.47213,-0.62932c0.40292,-0.4214 0.60438,-0.99528 0.60438,-1.72164zM268.29076,177.14723c1.18103,0 2.12087,0.35764 2.81951,1.07291c0.69864,0.71527 1.04796,1.70871 1.04796,2.9803v5.55307h-2.89436v-5.16216c0,-0.61177 -0.16265,-1.08492 -0.48794,-1.41946c-0.32344,-0.33638 -0.76887,-0.50457 -1.33628,-0.50457c-0.56741,0 -1.01283,0.16819 -1.33628,0.50457c-0.32344,0.33453 -0.48516,0.80769 -0.48516,1.41946v5.16216h-2.89713v-5.16216c0,-0.61177 -0.16172,-1.08492 -0.48516,-1.41946c-0.32344,-0.33638 -0.76888,-0.50457 -1.33629,-0.50457c-0.56741,0 -1.01283,0.16819 -1.33628,0.50457c-0.32344,0.33453 -0.48517,0.80769 -0.48517,1.41946v5.16216h-2.91377v-9.5037h2.91377v1.19212c0.29387,-0.39738 0.67923,-0.7125 1.15608,-0.94538c0.47685,-0.23288 1.01654,-0.34932 1.61907,-0.34932c0.71528,0 1.35384,0.1534 1.91571,0.46022c0.56187,0.30681 1.00175,0.74393 1.31965,1.31134c0.33083,-0.52305 0.77997,-0.94907 1.34737,-1.27806c0.56741,-0.32899 1.18565,-0.49349 1.85471,-0.49349zM283.16314,181.84918c0,0.27169 -0.01756,0.5554 -0.05268,0.85111h-6.58993c0.04436,0.58959 0.2338,1.04057 0.56834,1.35292c0.33638,0.31235 0.74854,0.46853 1.23648,0.46853c0.72636,0 1.23186,-0.3068 1.51649,-0.92042h3.09951c-0.15895,0.62471 -0.44635,1.1875 -0.86221,1.68838c-0.41401,0.49902 -0.93336,0.89085 -1.55807,1.17548c-0.62471,0.28278 -1.32243,0.42418 -2.09314,0.42418c-0.93152,0 -1.76138,-0.19868 -2.48959,-0.59606c-0.72636,-0.39738 -1.29378,-0.96479 -1.70224,-1.70224c-0.40846,-0.7393 -0.61269,-1.60243 -0.61269,-2.58939c0,-0.98881 0.20146,-1.85195 0.60438,-2.5894c0.40292,-0.73745 0.96756,-1.30486 1.69392,-1.70224c0.72821,-0.39922 1.56362,-0.59883 2.50623,-0.59883c0.91858,0 1.7355,0.19314 2.45078,0.57942c0.71528,0.38628 1.27436,0.93706 1.67728,1.65233c0.40476,0.71527 0.60715,1.55069 0.60715,2.50623zM280.18007,181.08123c0,-0.49902 -0.17004,-0.8964 -0.51012,-1.19212c-0.34008,-0.29572 -0.7661,-0.44358 -1.27806,-0.44358c-0.48794,0 -0.89917,0.14231 -1.2337,0.42694c-0.33454,0.28278 -0.54154,0.6857 -0.62101,1.20875z" fill="#000000" stroke="#00ffff" stroke-width="2" stroke-linecap="square"/><path d="M199.75063,177.1306v2.41751h3.90073v2.2484h-3.90073v2.62266h4.41084v2.33434h-7.32461v-11.95725h7.32461v2.33434zM211.67157,186.75351l-1.82145,-2.6393l-1.53312,2.6393h-3.15219l3.13555,-4.85443l-3.21873,-4.64927h3.26863l1.82422,2.62266l1.53313,-2.62266h3.14942l-3.18546,4.78512l3.2714,4.71858zM217.53145,176.26007c-0.51012,0 -0.9269,-0.1497 -1.25034,-0.44912c-0.32344,-0.30127 -0.48516,-0.67369 -0.48516,-1.11727c0,-0.45467 0.16172,-0.83172 0.48516,-1.13113c0.32344,-0.30127 0.74022,-0.4519 1.25034,-0.4519c0.50088,0 0.91304,0.15063 1.23648,0.4519c0.32344,0.29942 0.48516,0.67646 0.48516,1.13113c0,0.44358 -0.16172,0.816 -0.48516,1.11727c-0.32344,0.29942 -0.7356,0.44912 -1.23648,0.44912zM218.9814,177.24981v9.5037h-2.91377v-9.5037zM226.39051,184.28332v2.47018h-1.48322c-1.05535,0 -1.87875,-0.25784 -2.47018,-0.77349c-0.58959,-0.51751 -0.88439,-1.36123 -0.88439,-2.53117v-3.78152h-1.15885v-2.41751h1.15885v-2.31771h2.91099v2.31771h1.91017v2.41751h-1.91017v3.81479c0,0.28463 0.06839,0.48979 0.20516,0.61547c0.13677,0.12383 0.3641,0.18575 0.682,0.18575h1.03964zM239.55649,178.57777c-0.21624,-0.39738 -0.52582,-0.70048 -0.92874,-0.90933c-0.40292,-0.2107 -0.877,-0.31605 -1.42223,-0.31605c-0.9426,0 -1.69761,0.30958 -2.26502,0.92874c-0.56741,0.61731 -0.85112,1.44256 -0.85112,2.47573c0,1.10155 0.29757,1.96192 0.89271,2.58108c0.59698,0.61917 1.4176,0.92874 2.46186,0.92874c0.71527,0 1.31965,-0.18113 1.81313,-0.54339c0.49533,-0.3641 0.85666,-0.88716 1.084,-1.56916h-3.69835v-2.14582h6.33765v2.70861c-0.21624,0.72636 -0.58313,1.40189 -1.10064,2.0266c-0.51566,0.62471 -1.17087,1.13021 -1.96561,1.51649c-0.79475,0.38628 -1.69207,0.57943 -2.69198,0.57943c-1.18103,0 -2.23453,-0.25783 -3.16051,-0.77349c-0.92413,-0.51751 -1.64494,-1.23648 -2.16245,-2.15691c-0.51566,-0.92043 -0.77349,-1.97116 -0.77349,-3.15219c0,-1.18103 0.25784,-2.23361 0.77349,-3.15774c0.51751,-0.92597 1.23556,-1.64679 2.15413,-2.16245c0.92043,-0.51751 1.97116,-0.77626 3.15219,-0.77626c1.43054,0 2.63653,0.34654 3.61795,1.03964c0.98327,0.69125 1.63385,1.65048 1.95175,2.87772zM244.01926,181.98502c0,-0.97772 0.1839,-1.83532 0.5517,-2.57277c0.36965,-0.73745 0.87238,-1.30486 1.50817,-1.70224c0.63764,-0.39922 1.34737,-0.59883 2.12918,-0.59883c0.67092,0 1.25866,0.13678 1.76323,0.41031c0.50642,0.27169 0.89548,0.62932 1.16717,1.0729v-1.3446h2.91376v9.5037h-2.91376v-1.34461c-0.28278,0.44173 -0.67739,0.79937 -1.18381,1.07291c-0.50457,0.27169 -1.09231,0.40754 -1.76323,0.40754c-0.77072,0 -1.4749,-0.20146 -2.11255,-0.60438c-0.6358,-0.40292 -1.13852,-0.97587 -1.50817,-1.71887c-0.3678,-0.74484 -0.5517,-1.60521 -0.5517,-2.58108zM251.13871,182.00166c0,-0.72636 -0.20146,-1.29932 -0.60438,-1.71887c-0.40292,-0.4214 -0.89363,-0.6321 -1.47213,-0.6321c-0.58035,0 -1.07199,0.20701 -1.47491,0.62101c-0.40292,0.41401 -0.60438,0.98512 -0.60438,1.71332c0,0.72636 0.20146,1.30302 0.60438,1.72996c0.40292,0.4251 0.89455,0.63764 1.47491,0.63764c0.5785,0 1.06921,-0.20977 1.47213,-0.62932c0.40292,-0.4214 0.60438,-0.99528 0.60438,-1.72164zM268.29076,177.14723c1.18103,0 2.12087,0.35764 2.81951,1.07291c0.69864,0.71527 1.04796,1.70871 1.04796,2.9803v5.55307h-2.89436v-5.16216c0,-0.61177 -0.16265,-1.08492 -0.48794,-1.41946c-0.32344,-0.33638 -0.76887,-0.50457 -1.33628,-0.50457c-0.56741,0 -1.01283,0.16819 -1.33628,0.50457c-0.32344,0.33453 -0.48516,0.80769 -0.48516,1.41946v5.16216h-2.89713v-5.16216c0,-0.61177 -0.16172,-1.08492 -0.48516,-1.41946c-0.32344,-0.33638 -0.76888,-0.50457 -1.33629,-0.50457c-0.56741,0 -1.01283,0.16819 -1.33628,0.50457c-0.32344,0.33453 -0.48517,0.80769 -0.48517,1.41946v5.16216h-2.91377v-9.5037h2.91377v1.19212c0.29387,-0.39738 0.67923,-0.7125 1.15608,-0.94538c0.47685,-0.23288 1.01654,-0.34932 1.61907,-0.34932c0.71528,0 1.35384,0.1534 1.91571,0.46022c0.56187,0.30681 1.00175,0.74393 1.31965,1.31134c0.33083,-0.52305 0.77997,-0.94907 1.34737,-1.27806c0.56741,-0.32899 1.18565,-0.49349 1.85471,-0.49349zM283.16314,181.84918c0,0.27169 -0.01756,0.5554 -0.05268,0.85111h-6.58993c0.04436,0.58959 0.2338,1.04057 0.56834,1.35292c0.33638,0.31235 0.74854,0.46853 1.23648,0.46853c0.72636,0 1.23186,-0.3068 1.51649,-0.92042h3.09951c-0.15895,0.62471 -0.44635,1.1875 -0.86221,1.68838c-0.41401,0.49902 -0.93336,0.89085 -1.55807,1.17548c-0.62471,0.28278 -1.32243,0.42418 -2.09314,0.42418c-0.93152,0 -1.76138,-0.19868 -2.48959,-0.59606c-0.72636,-0.39738 -1.29378,-0.96479 -1.70224,-1.70224c-0.40846,-0.7393 -0.61269,-1.60243 -0.61269,-2.58939c0,-0.98881 0.20146,-1.85195 0.60438,-2.5894c0.40292,-0.73745 0.96756,-1.30486 1.69392,-1.70224c0.72821,-0.39922 1.56362,-0.59883 2.50623,-0.59883c0.91858,0 1.7355,0.19314 2.45078,0.57942c0.71528,0.38628 1.27436,0.93706 1.67728,1.65233c0.40476,0.71527 0.60715,1.55069 0.60715,2.50623zM280.18007,181.08123c0,-0.49902 -0.17004,-0.8964 -0.51012,-1.19212c-0.34008,-0.29572 -0.7661,-0.44358 -1.27806,-0.44358c-0.48794,0 -0.89917,0.14231 -1.2337,0.42694c-0.33454,0.28278 -0.54154,0.6857 -0.62101,1.20875z" fill="#000000" stroke="none" stroke-width="1" stroke-linecap="square"/></g></g></svg>