<svg version="1.1" xmlns="http://www.w3.org/2000/svg" xmlns:xlink="http://www.w3.org/1999/xlink" width="305.04625" height="59.13108" viewBox="0,0,305.04625,59.13108"><defs><radialGradient cx="312.07206" cy="179.99999" r="28.87623" gradientUnits="userSpaceOnUse" id="color-1"><stop offset="0" stop-color="#0300ff"/><stop offset="1" stop-color="#0300ff" stop-opacity="0"/></radialGradient><radialGradient cx="322.14423" cy="179.86214" r="28.87624" gradientUnits="userSpaceOnUse" id="color-2"><stop offset="0" stop-color="#0300ff"/><stop offset="1" stop-color="#0300ff" stop-opacity="0"/></radialGradient><radialGradient cx="301.99991" cy="180.13785" r="28.87624" gradientUnits="userSpaceOnUse" id="color-3"><stop offset="0" stop-color="#0300ff"/><stop offset="1" stop-color="#0300ff" stop-opacity="0"/></radialGradient><radialGradient cx="332.21639" cy="179.72429" r="28.87622" gradientUnits="userSpaceOnUse" id="color-4"><stop offset="0" stop-color="#0300ff"/><stop offset="1" stop-color="#0300ff" stop-opacity="0"/></radialGradient><radialGradient cx="291.92775" cy="180.2757" r="28.87623" gradientUnits="userSpaceOnUse" id="color-5"><stop offset="0" stop-color="#0300ff"/><stop offset="1" stop-color="#0300ff" stop-opacity="0"/></radialGradient><radialGradient cx="342.28855" cy="179.58644" r="28.87623" gradientUnits="userSpaceOnUse" id="color-6"><stop offset="0" stop-color="#0300ff"/><stop offset="1" stop-color="#0300ff" stop-opacity="0"/></radialGradient><radialGradient cx="281.85558" cy="180.41355" r="28.87623" gradientUnits="userSpaceOnUse" id="color-7"><stop offset="0" stop-color="#0300ff"/><stop offset="1" stop-color="#0300ff" stop-opacity="0"/></radialGradient><radialGradient cx="352.36071" cy="179.44859" r="28.87623" gradientUnits="userSpaceOnUse" id="color-8"><stop offset="0" stop-color="#0300ff"/><stop offset="1" stop-color="#0300ff" stop-opacity="0"/></radialGradient><radialGradient cx="271.78343" cy="180.5514" r="28.87623" gradientUnits="userSpaceOnUse" id="color-9"><stop offset="0" stop-color="#0300ff"/><stop offset="1" stop-color="#0300ff" stop-opacity="0"/></radialGradient><radialGradient cx="362.43288" cy="179.31073" r="28.87623" gradientUnits="userSpaceOnUse" id="color-10"><stop offset="0" stop-color="#0300ff"/><stop offset="1" stop-color="#0300ff" stop-opacity="0"/></radialGradient><radialGradient cx="261.71127" cy="180.68925" r="28.87624" gradientUnits="userSpaceOnUse" id="color-11"><stop offset="0" stop-color="#0300ff"/><stop offset="1" stop-color="#0300ff" stop-opacity="0"/></radialGradient><radialGradient cx="239.99999" cy="179.99999" r="28.87623" gradientUnits="userSpaceOnUse" id="color-12"><stop offset="0" stop-color="#0300ff"/><stop offset="1" stop-color="#0300ff" stop-opacity="0"/></radialGradient><radialGradient cx="250.07216" cy="179.86214" r="28.87624" gradientUnits="userSpaceOnUse" id="color-13"><stop offset="0" stop-color="#0300ff"/><stop offset="1" stop-color="#0300ff" stop-opacity="0"/></radialGradient><radialGradient cx="229.92784" cy="180.13785" r="28.87624" gradientUnits="userSpaceOnUse" id="color-14"><stop offset="0" stop-color="#0300ff"/><stop offset="1" stop-color="#0300ff" stop-opacity="0"/></radialGradient><radialGradient cx="260.14432" cy="179.72429" r="28.87622" gradientUnits="userSpaceOnUse" id="color-15"><stop offset="0" stop-color="#0300ff"/><stop offset="1" stop-color="#0300ff" stop-opacity="0"/></radialGradient><radialGradient cx="219.85568" cy="180.2757" r="28.87623" gradientUnits="userSpaceOnUse" id="color-16"><stop offset="0" stop-color="#0300ff"/><stop offset="1" stop-color="#0300ff" stop-opacity="0"/></radialGradient><radialGradient cx="270.21648" cy="179.58644" r="28.87623" gradientUnits="userSpaceOnUse" id="color-17"><stop offset="0" stop-color="#0300ff"/><stop offset="1" stop-color="#0300ff" stop-opacity="0"/></radialGradient><radialGradient cx="209.78351" cy="180.41355" r="28.87623" gradientUnits="userSpaceOnUse" id="color-18"><stop offset="0" stop-color="#0300ff"/><stop offset="1" stop-color="#0300ff" stop-opacity="0"/></radialGradient><radialGradient cx="280.28864" cy="179.44859" r="28.87623" gradientUnits="userSpaceOnUse" id="color-19"><stop offset="0" stop-color="#0300ff"/><stop offset="1" stop-color="#0300ff" stop-opacity="0"/></radialGradient><radialGradient cx="199.71136" cy="180.5514" r="28.87623" gradientUnits="userSpaceOnUse" id="color-20"><stop offset="0" stop-color="#0300ff"/><stop offset="1" stop-color="#0300ff" stop-opacity="0"/></radialGradient><radialGradient cx="290.36081" cy="179.31073" r="28.87623" gradientUnits="userSpaceOnUse" id="color-21"><stop offset="0" stop-color="#0300ff"/><stop offset="1" stop-color="#0300ff" stop-opacity="0"/></radialGradient><radialGradient cx="189.6392" cy="180.68925" r="28.87624" gradientUnits="userSpaceOnUse" id="color-22"><stop offset="0" stop-color="#0300ff"/><stop offset="1" stop-color="#0300ff" stop-opacity="0"/></radialGradient><radialGradient cx="165.49999" cy="179.99999" r="28.87623" gradientUnits="userSpaceOnUse" id="color-23"><stop offset="0" stop-color="#0300ff"/><stop offset="1" stop-color="#0300ff" stop-opacity="0"/></radialGradient><radialGradient cx="175.57216" cy="179.86214" r="28.87624" gradientUnits="userSpaceOnUse" id="color-24"><stop offset="0" stop-color="#0300ff"/><stop offset="1" stop-color="#0300ff" stop-opacity="0"/></radialGradient><radialGradient cx="155.42784" cy="180.13785" r="28.87624" gradientUnits="userSpaceOnUse" id="color-25"><stop offset="0" stop-color="#0300ff"/><stop offset="1" stop-color="#0300ff" stop-opacity="0"/></radialGradient><radialGradient cx="185.64432" cy="179.72429" r="28.87622" gradientUnits="userSpaceOnUse" id="color-26"><stop offset="0" stop-color="#0300ff"/><stop offset="1" stop-color="#0300ff" stop-opacity="0"/></radialGradient><radialGradient cx="145.35568" cy="180.2757" r="28.87623" gradientUnits="userSpaceOnUse" id="color-27"><stop offset="0" stop-color="#0300ff"/><stop offset="1" stop-color="#0300ff" stop-opacity="0"/></radialGradient><radialGradient cx="195.71648" cy="179.58644" r="28.87623" gradientUnits="userSpaceOnUse" id="color-28"><stop offset="0" stop-color="#0300ff"/><stop offset="1" stop-color="#0300ff" stop-opacity="0"/></radialGradient><radialGradient cx="135.28351" cy="180.41355" r="28.87623" gradientUnits="userSpaceOnUse" id="color-29"><stop offset="0" stop-color="#0300ff"/><stop offset="1" stop-color="#0300ff" stop-opacity="0"/></radialGradient><radialGradient cx="205.78864" cy="179.44859" r="28.87623" gradientUnits="userSpaceOnUse" id="color-30"><stop offset="0" stop-color="#0300ff"/><stop offset="1" stop-color="#0300ff" stop-opacity="0"/></radialGradient><radialGradient cx="125.21136" cy="180.5514" r="28.87623" gradientUnits="userSpaceOnUse" id="color-31"><stop offset="0" stop-color="#0300ff"/><stop offset="1" stop-color="#0300ff" stop-opacity="0"/></radialGradient><radialGradient cx="215.86081" cy="179.31073" r="28.87623" gradientUnits="userSpaceOnUse" id="color-32"><stop offset="0" stop-color="#0300ff"/><stop offset="1" stop-color="#0300ff" stop-opacity="0"/></radialGradient><radialGradient cx="115.1392" cy="180.68925" r="28.87624" gradientUnits="userSpaceOnUse" id="color-33"><stop offset="0" stop-color="#0300ff"/><stop offset="1" stop-color="#0300ff" stop-opacity="0"/></radialGradient></defs><g transform="translate(-86.26291,-150.43446)"><g data-paper-data="{&quot;isPaintingLayer&quot;:true}" fill-rule="nonzero" stroke-linejoin="miter" stroke-miterlimit="10" stroke-dasharray="" stroke-dashoffset="0" style="mix-blend-mode: normal"><g stroke="none" stroke-width="0" stroke-linecap="butt"><path d="M340.94559,179.60482c0.21825,15.94641 -12.53195,29.05045 -28.47836,29.26869c-15.94641,0.21824 -29.05044,-12.53194 -29.2687,-28.47835c-0.21825,-15.94641 12.53195,-29.05044 28.47836,-29.2687c15.94641,-0.21825 29.05044,12.53194 29.26869,28.47834z" fill="url(#color-1)"/><path d="M351.01776,179.46696c0.21825,15.94641 -12.53194,29.05046 -28.47835,29.2687c-15.94641,0.21824 -29.05045,-12.53193 -29.2687,-28.47834c-0.21825,-15.94641 12.53194,-29.05045 28.47834,-29.26871c15.94641,-0.21825 29.05046,12.53194 29.26871,28.47834z" fill="url(#color-2)"/><path d="M330.87344,179.74267c0.21825,15.94641 -12.53194,29.05045 -28.47835,29.2687c-15.94641,0.21824 -29.05045,-12.53194 -29.26871,-28.47835c-0.21825,-15.94641 12.53195,-29.05045 28.47835,-29.2687c15.94641,-0.21825 29.05046,12.53194 29.2687,28.47835z" fill="url(#color-3)"/><path d="M361.08992,179.32912c0.21825,15.94641 -12.53195,29.05045 -28.47834,29.2687c-15.94641,0.21824 -29.05045,-12.53194 -29.2687,-28.47836c-0.21825,-15.94641 12.53194,-29.05045 28.47834,-29.26871c15.94641,-0.21825 29.05044,12.53195 29.26869,28.47836z" fill="url(#color-4)"/><path d="M320.80128,179.88053c0.21825,15.94641 -12.53195,29.05046 -28.47835,29.2687c-15.94641,0.21824 -29.05045,-12.53195 -29.26871,-28.47836c-0.21825,-15.94641 12.53195,-29.05044 28.47836,-29.26869c15.94641,-0.21825 29.05046,12.53194 29.26871,28.47834z" fill="url(#color-5)"/><path d="M371.16208,179.19127c0.21825,15.94641 -12.53195,29.05046 -28.47836,29.26871c-15.94641,0.21824 -29.05045,-12.53195 -29.2687,-28.47835c-0.21825,-15.94641 12.53195,-29.05045 28.47836,-29.26871c15.94641,-0.21825 29.05045,12.53195 29.2687,28.47835z" fill="url(#color-6)"/><path d="M310.72911,180.01838c0.21825,15.94641 -12.53195,29.05045 -28.47835,29.2687c-15.94641,0.21824 -29.05045,-12.53194 -29.2687,-28.47835c-0.21825,-15.94641 12.53195,-29.05045 28.47836,-29.2687c15.94641,-0.21825 29.05044,12.53195 29.2687,28.47836z" fill="url(#color-7)"/><path d="M381.23425,179.05342c0.21825,15.94641 -12.53194,29.05046 -28.47835,29.2687c-15.94641,0.21824 -29.05046,-12.53193 -29.26871,-28.47834c-0.21825,-15.94641 12.53194,-29.05044 28.47835,-29.2687c15.94641,-0.21825 29.05046,12.53195 29.2687,28.47834z" fill="url(#color-8)"/><path d="M300.65695,180.15622c0.21825,15.94641 -12.53195,29.05046 -28.47835,29.26871c-15.94641,0.21824 -29.05044,-12.53194 -29.2687,-28.47835c-0.21825,-15.94641 12.53194,-29.05044 28.47834,-29.2687c15.94641,-0.21825 29.05046,12.53194 29.2687,28.47834z" fill="url(#color-9)"/><path d="M391.3064,178.91556c0.21825,15.94641 -12.53194,29.05046 -28.47834,29.26871c-15.94641,0.21824 -29.05045,-12.53195 -29.2687,-28.47836c-0.21825,-15.94641 12.53195,-29.05044 28.47835,-29.26869c15.94641,-0.21825 29.05045,12.53195 29.26869,28.47834z" fill="url(#color-10)"/><path d="M290.58479,180.29408c0.21825,15.94641 -12.53195,29.05045 -28.47835,29.2687c-15.94641,0.21824 -29.05045,-12.53194 -29.2687,-28.47835c-0.21824,-15.94641 12.53193,-29.05045 28.47834,-29.26871c15.94641,-0.21825 29.05046,12.53195 29.2687,28.47836z" fill="url(#color-11)"/></g><g stroke="none" stroke-width="0" stroke-linecap="butt"><path d="M268.87352,179.60482c0.21825,15.94641 -12.53195,29.05045 -28.47836,29.26869c-15.94641,0.21824 -29.05044,-12.53194 -29.2687,-28.47835c-0.21825,-15.94641 12.53195,-29.05044 28.47836,-29.2687c15.94641,-0.21825 29.05044,12.53194 29.26869,28.47834z" fill="url(#color-12)"/><path d="M278.94569,179.46696c0.21825,15.94641 -12.53194,29.05046 -28.47835,29.2687c-15.94641,0.21824 -29.05045,-12.53193 -29.2687,-28.47834c-0.21825,-15.94641 12.53194,-29.05045 28.47834,-29.26871c15.94641,-0.21825 29.05046,12.53194 29.26871,28.47834z" fill="url(#color-13)"/><path d="M258.80137,179.74267c0.21825,15.94641 -12.53194,29.05045 -28.47835,29.2687c-15.94641,0.21824 -29.05045,-12.53194 -29.26871,-28.47835c-0.21825,-15.94641 12.53195,-29.05045 28.47835,-29.2687c15.94641,-0.21825 29.05046,12.53194 29.2687,28.47835z" fill="url(#color-14)"/><path d="M289.01785,179.32912c0.21825,15.94641 -12.53195,29.05045 -28.47834,29.2687c-15.94641,0.21824 -29.05045,-12.53194 -29.2687,-28.47836c-0.21825,-15.94641 12.53194,-29.05045 28.47834,-29.26871c15.94641,-0.21825 29.05044,12.53195 29.26869,28.47836z" fill="url(#color-15)"/><path d="M248.72921,179.88053c0.21825,15.94641 -12.53195,29.05046 -28.47835,29.2687c-15.94641,0.21824 -29.05045,-12.53195 -29.26871,-28.47836c-0.21825,-15.94641 12.53195,-29.05044 28.47836,-29.26869c15.94641,-0.21825 29.05046,12.53194 29.26871,28.47834z" fill="url(#color-16)"/><path d="M299.09001,179.19127c0.21825,15.94641 -12.53195,29.05046 -28.47836,29.26871c-15.94641,0.21824 -29.05045,-12.53195 -29.2687,-28.47835c-0.21825,-15.94641 12.53195,-29.05045 28.47836,-29.26871c15.94641,-0.21825 29.05045,12.53195 29.2687,28.47835z" fill="url(#color-17)"/><path d="M238.65704,180.01838c0.21825,15.94641 -12.53195,29.05045 -28.47835,29.2687c-15.94641,0.21824 -29.05045,-12.53194 -29.2687,-28.47835c-0.21825,-15.94641 12.53195,-29.05045 28.47836,-29.2687c15.94641,-0.21825 29.05044,12.53195 29.2687,28.47836z" fill="url(#color-18)"/><path d="M309.16218,179.05342c0.21825,15.94641 -12.53194,29.05046 -28.47835,29.2687c-15.94641,0.21824 -29.05046,-12.53193 -29.26871,-28.47834c-0.21825,-15.94641 12.53194,-29.05044 28.47835,-29.2687c15.94641,-0.21825 29.05046,12.53195 29.2687,28.47834z" fill="url(#color-19)"/><path d="M228.58488,180.15622c0.21825,15.94641 -12.53195,29.05046 -28.47835,29.26871c-15.94641,0.21824 -29.05044,-12.53194 -29.2687,-28.47835c-0.21825,-15.94641 12.53194,-29.05044 28.47834,-29.2687c15.94641,-0.21825 29.05046,12.53194 29.2687,28.47834z" fill="url(#color-20)"/><path d="M319.23433,178.91556c0.21825,15.94641 -12.53194,29.05046 -28.47834,29.26871c-15.94641,0.21824 -29.05045,-12.53195 -29.2687,-28.47836c-0.21825,-15.94641 12.53195,-29.05044 28.47835,-29.26869c15.94641,-0.21825 29.05045,12.53195 29.26869,28.47834z" fill="url(#color-21)"/><path d="M218.51272,180.29408c0.21825,15.94641 -12.53195,29.05045 -28.47835,29.2687c-15.94641,0.21824 -29.05045,-12.53194 -29.2687,-28.47835c-0.21824,-15.94641 12.53193,-29.05045 28.47834,-29.26871c15.94641,-0.21825 29.05046,12.53195 29.2687,28.47836z" fill="url(#color-22)"/></g><g stroke="none" stroke-width="0" stroke-linecap="butt"><path d="M194.37352,179.60482c0.21825,15.94641 -12.53195,29.05045 -28.47836,29.26869c-15.94641,0.21824 -29.05044,-12.53194 -29.2687,-28.47835c-0.21825,-15.94641 12.53195,-29.05044 28.47836,-29.2687c15.94641,-0.21825 29.05044,12.53194 29.26869,28.47834z" fill="url(#color-23)"/><path d="M204.44569,179.46696c0.21825,15.94641 -12.53194,29.05046 -28.47835,29.2687c-15.94641,0.21824 -29.05045,-12.53193 -29.2687,-28.47834c-0.21825,-15.94641 12.53194,-29.05045 28.47834,-29.26871c15.94641,-0.21825 29.05046,12.53194 29.26871,28.47834z" fill="url(#color-24)"/><path d="M184.30137,179.74267c0.21825,15.94641 -12.53194,29.05045 -28.47835,29.2687c-15.94641,0.21824 -29.05045,-12.53194 -29.26871,-28.47835c-0.21825,-15.94641 12.53195,-29.05045 28.47835,-29.2687c15.94641,-0.21825 29.05046,12.53194 29.2687,28.47835z" fill="url(#color-25)"/><path d="M214.51785,179.32912c0.21825,15.94641 -12.53195,29.05045 -28.47834,29.2687c-15.94641,0.21824 -29.05045,-12.53194 -29.2687,-28.47836c-0.21825,-15.94641 12.53194,-29.05045 28.47834,-29.26871c15.94641,-0.21825 29.05044,12.53195 29.26869,28.47836z" fill="url(#color-26)"/><path d="M174.22921,179.88053c0.21825,15.94641 -12.53195,29.05046 -28.47835,29.2687c-15.94641,0.21824 -29.05045,-12.53195 -29.26871,-28.47836c-0.21825,-15.94641 12.53195,-29.05044 28.47836,-29.26869c15.94641,-0.21825 29.05046,12.53194 29.26871,28.47834z" fill="url(#color-27)"/><path d="M224.59001,179.19127c0.21825,15.94641 -12.53195,29.05046 -28.47836,29.26871c-15.94641,0.21824 -29.05045,-12.53195 -29.2687,-28.47835c-0.21825,-15.94641 12.53195,-29.05045 28.47836,-29.26871c15.94641,-0.21825 29.05045,12.53195 29.2687,28.47835z" fill="url(#color-28)"/><path d="M164.15704,180.01838c0.21825,15.94641 -12.53195,29.05045 -28.47835,29.2687c-15.94641,0.21824 -29.05045,-12.53194 -29.2687,-28.47835c-0.21825,-15.94641 12.53195,-29.05045 28.47836,-29.2687c15.94641,-0.21825 29.05044,12.53195 29.2687,28.47836z" fill="url(#color-29)"/><path d="M234.66218,179.05342c0.21825,15.94641 -12.53194,29.05046 -28.47835,29.2687c-15.94641,0.21824 -29.05046,-12.53193 -29.26871,-28.47834c-0.21825,-15.94641 12.53194,-29.05044 28.47835,-29.2687c15.94641,-0.21825 29.05046,12.53195 29.2687,28.47834z" fill="url(#color-30)"/><path d="M154.08488,180.15622c0.21825,15.94641 -12.53195,29.05046 -28.47835,29.26871c-15.94641,0.21824 -29.05044,-12.53194 -29.2687,-28.47835c-0.21825,-15.94641 12.53194,-29.05044 28.47834,-29.2687c15.94641,-0.21825 29.05046,12.53194 29.2687,28.47834z" fill="url(#color-31)"/><path d="M244.73433,178.91556c0.21825,15.94641 -12.53194,29.05046 -28.47834,29.26871c-15.94641,0.21824 -29.05045,-12.53195 -29.2687,-28.47836c-0.21825,-15.94641 12.53195,-29.05044 28.47835,-29.26869c15.94641,-0.21825 29.05045,12.53195 29.26869,28.47834z" fill="url(#color-32)"/><path d="M144.01272,180.29408c0.21825,15.94641 -12.53195,29.05045 -28.47835,29.2687c-15.94641,0.21824 -29.05045,-12.53194 -29.2687,-28.47835c-0.21824,-15.94641 12.53193,-29.05045 28.47834,-29.26871c15.94641,-0.21825 29.05046,12.53195 29.2687,28.47836z" fill="url(#color-33)"/></g><path d="M135.09305,197.17647h-7.84178l-13.12191,-19.86583v19.86583h-7.84924v-32.21103h7.84924l13.12191,19.96292v-19.96292h7.84178zM148.63533,171.2538v6.51241h10.50798v6.05683h-10.50798v7.06506h11.88216v6.28836h-19.7314v-32.21102h19.7314v6.28836zM180.84563,197.4976c-3.03215,0 -5.81038,-0.70202 -8.33469,-2.10608c-2.51933,-1.40903 -4.52085,-3.3757 -6.00456,-5.9c-1.48371,-2.5243 -2.22557,-5.36228 -2.22557,-8.51392c0,-3.15165 0.74186,-5.97966 2.22557,-8.48405c1.48371,-2.50937 3.48524,-4.46857 6.00456,-5.8776c2.5243,-1.40903 5.30254,-2.11355 8.33469,-2.11355c3.02718,0 5.80292,0.70452 8.32722,2.11355c2.5243,1.40903 4.51089,3.36823 5.95974,5.8776c1.45383,2.50439 2.18076,5.3324 2.18076,8.48405c0,3.15165 -0.73438,5.98962 -2.20316,8.51392c-1.4638,2.5243 -3.45039,4.49097 -5.95975,5.9c-2.50937,1.40405 -5.27764,2.10608 -8.30481,2.10608zM180.84563,190.34292c2.56912,0 4.62541,-0.85638 6.16887,-2.56912c1.54346,-1.71772 2.31519,-3.98313 2.31519,-6.7962c0,-2.84295 -0.77173,-5.11333 -2.31519,-6.81114c-1.54346,-1.6978 -3.59975,-2.54671 -6.16887,-2.54671c-2.60397,0 -4.67768,0.84143 -6.22115,2.5243c-1.54346,1.68287 -2.31519,3.96071 -2.31519,6.83354c0,2.84793 0.77173,5.1208 2.31519,6.8186c1.54346,1.6978 3.61718,2.54671 6.22115,2.54671zM230.48917,197.17647h-7.84178l-13.12191,-19.86583v19.86583h-7.84924v-32.21103h7.84924l13.12191,19.96292v-19.96292h7.84178zM270.45842,175.33152c0,1.86709 -0.42818,3.57486 -1.28456,5.1233c-0.85638,1.54346 -2.17329,2.79067 -3.95076,3.74164c-1.77249,0.94599 -3.97316,1.41899 -6.60202,1.41899h-4.8619v11.56101h-7.84924v-32.21102h12.71115c2.56912,0 4.73992,0.44312 6.51241,1.32937c1.77747,0.88625 3.10933,2.11106 3.99557,3.67443c0.88625,1.55839 1.32936,3.34582 1.32936,5.36228zM258.0236,179.37191c1.49865,0 2.61393,-0.35102 3.34583,-1.05304c0.73688,-0.70202 1.10531,-1.6978 1.10531,-2.98734c0,-1.28456 -0.36843,-2.27785 -1.10531,-2.97988c-0.7319,-0.70202 -1.84718,-1.05303 -3.34583,-1.05303h-4.26443v8.0733zM289.77799,197.4976c-3.03215,0 -5.81038,-0.70202 -8.33469,-2.10608c-2.51933,-1.40903 -4.52085,-3.3757 -6.00456,-5.9c-1.48371,-2.5243 -2.22557,-5.36228 -2.22557,-8.51392c0,-3.15165 0.74186,-5.97966 2.22557,-8.48405c1.48371,-2.50937 3.48524,-4.46857 6.00456,-5.8776c2.52431,-1.40903 5.30254,-2.11355 8.33469,-2.11355c3.02718,0 5.80291,0.70452 8.32722,2.11355c2.52431,1.40903 4.51089,3.36823 5.95975,5.8776c1.45384,2.50439 2.18075,5.3324 2.18075,8.48405c0,3.15165 -0.73438,5.98962 -2.20316,8.51392c-1.4638,2.5243 -3.45038,4.49097 -5.95975,5.9c-2.50937,1.40405 -5.27764,2.10608 -8.30482,2.10608zM289.77799,190.34292c2.56912,0 4.62541,-0.85638 6.16886,-2.56912c1.54346,-1.71772 2.3152,-3.98313 2.3152,-6.7962c0,-2.84295 -0.77174,-5.11333 -2.3152,-6.81114c-1.54346,-1.6978 -3.59974,-2.54671 -6.16886,-2.54671c-2.60397,0 -4.67768,0.84143 -6.22114,2.5243c-1.54346,1.68287 -2.3152,3.96071 -2.3152,6.83354c0,2.84793 0.77174,5.1208 2.3152,6.8186c1.54346,1.6978 3.61717,2.54671 6.22114,2.54671zM339.42154,197.17647h-7.84178l-13.12191,-19.86583v19.86583h-7.84924v-32.21103h7.84924l13.12191,19.96292v-19.96292h7.84178zM366.49646,175.15228c-0.58253,-1.07047 -1.4165,-1.887 -2.5019,-2.44962c-1.0854,-0.5676 -2.36248,-0.85139 -3.83126,-0.85139c-2.53924,0 -4.57313,0.83397 -6.10165,2.5019c-1.52852,1.66296 -2.29279,3.88603 -2.29279,6.66924c0,2.96742 0.80161,5.2851 2.40482,6.95304c1.60819,1.66793 3.81882,2.5019 6.6319,2.5019c1.92684,0 3.55494,-0.48793 4.8843,-1.4638c1.33434,-0.98084 2.30773,-2.38988 2.92013,-4.22709h-9.96279v-5.78051h17.07267v7.29658c-0.58253,1.95671 -1.57084,3.7765 -2.96493,5.45937c-1.38911,1.68287 -3.15414,3.0446 -5.29507,4.08519c-2.14092,1.04059 -4.55819,1.56088 -7.25178,1.56088c-3.18152,0 -6.0195,-0.69456 -8.51393,-2.08367c-2.48946,-1.39409 -4.43122,-3.33089 -5.82532,-5.81038c-1.38911,-2.47949 -2.08367,-5.30999 -2.08367,-8.49151c0,-3.18152 0.69456,-6.01701 2.08367,-8.50647c1.39409,-2.49443 3.3284,-4.4362 5.80291,-5.82532c2.47949,-1.39409 5.31001,-2.09114 8.49153,-2.09114c3.85367,0 7.10241,0.93354 9.7462,2.80063c2.64878,1.86211 4.40135,4.44616 5.25772,7.75215z" fill="#000000" stroke="#00ffff" stroke-width="2" stroke-linecap="square"/><path d="M135.09305,197.17646h-7.84178l-13.12191,-19.86583v19.86583h-7.84924v-32.21102h7.84924l13.12191,19.96291v-19.96291h7.84178zM148.63532,171.25379v6.51241h10.50798v6.05684h-10.50798v7.06506h11.88216v6.28836h-19.73141v-32.21102h19.73141v6.28836zM180.84563,197.4976c-3.03216,0 -5.81038,-0.70202 -8.33469,-2.10608c-2.51933,-1.40903 -4.52084,-3.3757 -6.00456,-5.9c-1.48371,-2.5243 -2.22557,-5.36228 -2.22557,-8.51392c0,-3.15165 0.74186,-5.97966 2.22557,-8.48406c1.48371,-2.50937 3.48524,-4.46857 6.00456,-5.8776c2.5243,-1.40903 5.30253,-2.11355 8.33469,-2.11355c3.02717,0 5.80292,0.70452 8.32722,2.11355c2.5243,1.40903 4.51089,3.36823 5.95975,5.8776c1.45384,2.50439 2.18076,5.33241 2.18076,8.48406c0,3.15164 -0.73439,5.98962 -2.20316,8.51392c-1.4638,2.5243 -3.45039,4.49097 -5.95975,5.9c-2.50937,1.40405 -5.27764,2.10608 -8.30482,2.10608zM180.84563,190.34291c2.56911,0 4.6254,-0.85637 6.16887,-2.56911c1.54346,-1.71772 2.31519,-3.98312 2.31519,-6.7962c0,-2.84296 -0.77173,-5.11333 -2.31519,-6.81115c-1.54346,-1.69781 -3.59975,-2.54671 -6.16887,-2.54671c-2.60397,0 -4.67768,0.84143 -6.22114,2.5243c-1.54346,1.68287 -2.31519,3.96072 -2.31519,6.83355c0,2.84793 0.77173,5.1208 2.31519,6.8186c1.54346,1.69781 3.61717,2.54671 6.22114,2.54671zM230.48916,197.17646h-7.84178l-13.12191,-19.86583v19.86583h-7.84924v-32.21102h7.84924l13.12191,19.96291v-19.96291h7.84178zM270.45842,175.33152c0,1.86709 -0.42819,3.57485 -1.28456,5.12329c-0.85637,1.54346 -2.1733,2.79068 -3.95076,3.74164c-1.77249,0.94599 -3.97317,1.41899 -6.60203,1.41899h-4.8619v11.56102h-7.84924v-32.21102h12.71114c2.56911,0 4.73992,0.44312 6.51241,1.32937c1.77747,0.88625 3.10933,2.11106 3.99557,3.67443c0.88625,1.5584 1.32937,3.34583 1.32937,5.36228zM258.0236,179.3719c1.49865,0 2.61393,-0.35101 3.34583,-1.05304c0.73688,-0.70202 1.10532,-1.69781 1.10532,-2.98734c0,-1.28456 -0.36844,-2.27785 -1.10532,-2.97988c-0.7319,-0.70202 -1.84717,-1.05304 -3.34583,-1.05304h-4.26443v8.07329zM289.77798,197.4976c-3.03216,0 -5.81038,-0.70202 -8.33469,-2.10608c-2.51933,-1.40903 -4.52084,-3.3757 -6.00456,-5.9c-1.48371,-2.5243 -2.22557,-5.36228 -2.22557,-8.51392c0,-3.15165 0.74186,-5.97966 2.22557,-8.48406c1.48371,-2.50937 3.48524,-4.46857 6.00456,-5.8776c2.5243,-1.40903 5.30253,-2.11355 8.33469,-2.11355c3.02717,0 5.80292,0.70452 8.32722,2.11355c2.5243,1.40903 4.51089,3.36823 5.95975,5.8776c1.45384,2.50439 2.18076,5.33241 2.18076,8.48406c0,3.15164 -0.73439,5.98962 -2.20316,8.51392c-1.4638,2.5243 -3.45039,4.49097 -5.95975,5.9c-2.50937,1.40405 -5.27764,2.10608 -8.30482,2.10608zM289.77798,190.34291c2.56911,0 4.6254,-0.85637 6.16887,-2.56911c1.54346,-1.71772 2.31519,-3.98312 2.31519,-6.7962c0,-2.84296 -0.77173,-5.11333 -2.31519,-6.81115c-1.54346,-1.69781 -3.59975,-2.54671 -6.16887,-2.54671c-2.60397,0 -4.67768,0.84143 -6.22114,2.5243c-1.54346,1.68287 -2.31519,3.96072 -2.31519,6.83355c0,2.84793 0.77173,5.1208 2.31519,6.8186c1.54346,1.69781 3.61717,2.54671 6.22114,2.54671zM339.42153,197.17646h-7.84178l-13.12191,-19.86583v19.86583h-7.84924v-32.21102h7.84924l13.12191,19.96291v-19.96291h7.84178zM366.49646,175.15228c-0.58253,-1.07047 -1.4165,-1.88701 -2.5019,-2.44962c-1.0854,-0.5676 -2.36249,-0.85139 -3.83127,-0.85139c-2.53924,0 -4.57312,0.83397 -6.10165,2.5019c-1.52852,1.66295 -2.29279,3.88604 -2.29279,6.66924c0,2.96742 0.80161,5.2851 2.40481,6.95304c1.60819,1.66793 3.81882,2.5019 6.6319,2.5019c1.92684,0 3.55494,-0.48793 4.88431,-1.4638c1.33434,-0.98084 2.30772,-2.38988 2.92013,-4.22709h-9.96279v-5.78051h17.07267v7.29658c-0.58253,1.95671 -1.57084,3.7765 -2.96494,5.45937c-1.38911,1.68287 -3.15414,3.0446 -5.29506,4.08519c-2.14093,1.04059 -4.55819,1.56088 -7.25178,1.56088c-3.18152,0 -6.0195,-0.69456 -8.51393,-2.08367c-2.48945,-1.39409 -4.43123,-3.33089 -5.82532,-5.81038c-1.38911,-2.47949 -2.08367,-5.31 -2.08367,-8.49152c0,-3.18152 0.69456,-6.01701 2.08367,-8.50646c1.39409,-2.49443 3.3284,-4.4362 5.80292,-5.82532c2.47949,-1.39409 5.31,-2.09114 8.49152,-2.09114c3.85367,0 7.10241,0.93354 9.74621,2.80063c2.64878,1.86211 4.40135,4.44616 5.25773,7.75215z" fill="#000000" stroke="none" stroke-width="1" stroke-linecap="square"/></g></g></svg>