<svg version="1.1" xmlns="http://www.w3.org/2000/svg" xmlns:xlink="http://www.w3.org/1999/xlink" width="162.75887" height="167.51094" viewBox="0,0,162.75887,167.51094"><defs><radialGradient cx="240.00001" cy="180" r="83.75547" gradientUnits="userSpaceOnUse" id="color-1"><stop offset="0" stop-color="#0400ff"/><stop offset="1" stop-color="#0400ff" stop-opacity="0"/></radialGradient></defs><g transform="translate(-158.62056,-96.24453)"><g data-paper-data="{&quot;isPaintingLayer&quot;:true}" fill-rule="nonzero" stroke="none" stroke-width="0" stroke-linecap="butt" stroke-linejoin="miter" stroke-miterlimit="10" stroke-dasharray="" stroke-dashoffset="0" style="mix-blend-mode: normal"><path d="M321.37944,180c0,46.25687 -36.43482,83.75547 -81.37944,83.75547c-44.94462,0 -81.37943,-37.4986 -81.37943,-83.75547c0,-46.25687 36.43482,-83.75547 81.37943,-83.75547c44.94462,0 81.37944,37.4986 81.37944,83.75547z" fill="url(#color-1)"/><path d="M281.80496,180c0,23.76236 -18.71672,43.02555 -41.80496,43.02555c-23.08824,0 -41.80496,-19.26319 -41.80496,-43.02555c0,-23.76236 18.71672,-43.02555 41.80496,-43.02555c23.08824,0 41.80496,19.26319 41.80496,43.02555z" fill="#00ffff"/><path d="M278.37943,180c0,21.81525 -17.18306,39.5 -38.37943,39.5c-21.19638,0 -38.37943,-17.68475 -38.37943,-39.5c0,-21.81525 17.18306,-39.5 38.37943,-39.5c21.19638,0 38.37943,17.68475 38.37943,39.5z" fill="#000000"/></g></g></svg>